<svg version="1.1" id="Layer_1" xmlns="http://www.w3.org/2000/svg" xmlns:xlink="http://www.w3.org/1999/xlink" x="0px" y="0px"
	 width="100%" viewBox="0 0 508 429" enable-background="new 0 0 508 429" xml:space="preserve">
<path fill="#FFFFFF" opacity="1.000000" stroke="none" 
	d="
M337.000000,430.000000 
	C224.666672,430.000000 112.833336,430.000000 1.000000,430.000000 
	C1.000000,287.000000 1.000000,144.000000 1.000000,1.000000 
	C170.333328,1.000000 339.666656,1.000000 509.000000,1.000000 
	C509.000000,144.000000 509.000000,287.000000 509.000000,430.000000 
	C451.833344,430.000000 394.666656,430.000000 337.000000,430.000000 
M179.095947,157.746643 
	C176.898422,166.419861 180.366135,173.802582 184.604782,180.892563 
	C195.198090,198.611969 209.230270,213.566971 223.276733,228.495438 
	C223.815735,229.068253 224.578262,229.430771 225.236633,229.891281 
	C224.445663,227.221451 223.074783,225.125504 221.876083,222.935333 
	C215.576981,211.425919 208.998627,200.054016 203.136459,188.324890 
	C196.546280,175.139084 198.634293,162.477737 207.221130,150.782806 
	C210.271484,146.628357 213.271408,142.348541 216.882629,138.709778 
	C231.430252,124.051193 246.313141,109.725479 260.872070,95.077904 
	C276.703400,79.150185 283.289032,59.917046 279.938446,37.647587 
	C278.987030,31.323902 278.607758,24.493177 272.643250,18.540649 
	C273.042786,21.833508 273.636902,23.946539 273.489716,26.006615 
	C272.900696,34.251221 273.044556,42.708843 271.148407,50.666164 
	C267.123779,67.556007 256.155975,79.996086 243.082077,90.899292 
	C228.121033,103.376328 213.214478,115.939186 198.737488,128.968369 
	C190.176605,136.673080 182.763901,145.538635 179.095947,157.746643 
M346.105591,373.845276 
	C334.731140,376.234100 323.457581,379.789276 311.962494,380.783875 
	C282.454681,383.336914 252.863449,385.047974 223.277649,386.543365 
	C192.088226,388.119873 161.024216,386.191772 130.214127,381.036438 
	C124.201584,380.030396 118.236671,378.245239 112.525078,376.089905 
	C107.870850,374.333557 107.570847,370.815308 111.643906,367.856781 
	C114.416901,365.842590 117.683838,364.327026 120.942070,363.204071 
	C126.056595,361.441345 131.350082,360.197906 136.567795,358.734589 
	C119.758980,358.035400 104.003906,361.498169 89.620445,370.257690 
	C88.097717,371.185028 86.754593,372.583679 85.670189,374.021606 
	C82.247337,378.560455 82.706993,382.094299 87.730072,384.662048 
	C92.117432,386.904877 96.887863,388.654480 101.685699,389.794006 
	C123.171715,394.897186 145.146240,396.022186 167.091034,396.964386 
	C203.567032,398.530518 240.024628,397.727722 276.412384,394.774353 
	C296.174255,393.170380 315.882202,390.603546 334.625610,383.900391 
	C342.937134,380.927979 350.847076,376.387970 358.269318,371.534851 
	C362.973938,368.458649 361.801575,364.352264 356.265320,361.559631 
	C358.216766,366.215515 355.970032,368.988007 352.239502,371.018341 
	C350.491425,371.969757 348.645172,372.740906 346.105591,373.845276 
M242.173645,197.360107 
	C245.518829,202.121414 248.766144,206.955276 252.229675,211.628876 
	C259.367523,221.260559 259.472107,230.888351 252.602814,240.675613 
	C251.017639,242.934143 249.592407,245.304932 248.093582,247.624069 
	C248.618225,248.100311 249.142883,248.576553 249.667526,249.052795 
	C255.985489,243.355804 262.675751,238.014374 268.535339,231.879562 
	C277.625000,222.362991 279.695496,211.194458 273.403076,199.331207 
	C268.894897,190.831848 263.785431,182.643494 258.764343,174.426346 
	C253.395615,165.640335 253.711731,157.032364 259.466125,148.719742 
	C262.385712,144.502213 265.348969,140.012268 269.261292,136.840469 
	C281.766022,126.702621 294.697510,117.088890 307.528381,107.357376 
	C310.203308,105.328568 313.153076,103.662094 315.976196,101.828644 
	C314.879517,100.999420 314.181732,100.836632 313.594696,101.022881 
	C290.617950,108.312836 268.611786,117.550179 250.350815,133.854858 
	C229.914398,152.101944 227.080368,173.580460 242.173645,197.360107 
M182.655197,338.197937 
	C174.784393,335.797058 174.205246,335.023224 175.385178,327.150940 
	C171.324356,329.139404 167.583221,330.494873 164.372650,332.643250 
	C157.805984,337.037231 157.500687,343.499725 164.289032,347.396881 
	C170.234665,350.810242 176.938736,353.515472 183.644394,354.883545 
	C209.507690,360.160126 235.547791,360.907654 261.485260,355.234467 
	C272.082977,352.916473 282.523895,349.881470 294.161652,346.882599 
	C286.330902,342.533264 279.870026,338.880737 273.326355,335.383148 
	C272.403656,334.889954 271.053986,334.962646 269.940277,335.095306 
	C257.404297,336.588715 244.905121,339.052887 232.338074,339.458282 
	C216.073105,339.982910 199.755600,338.878479 182.655197,338.197937 
M166.952988,295.649780 
	C161.298569,292.266907 164.163727,288.321686 167.548721,283.399994 
	C162.970352,285.105774 159.746872,285.962585 156.855957,287.461060 
	C151.994965,289.980682 147.452011,293.256653 147.966934,299.535889 
	C148.463043,305.585938 153.892593,307.134369 158.419388,307.967072 
	C171.954407,310.456787 185.564026,312.827789 199.250290,314.151306 
	C231.896820,317.308380 264.068024,314.400757 295.514923,304.736176 
	C296.633423,304.392456 297.646912,303.706909 298.850372,303.110809 
	C295.555664,301.154236 292.289124,299.903809 289.954742,297.676422 
	C285.821899,293.732941 281.390472,293.651459 276.183533,294.514526 
	C247.019028,299.348480 217.627289,301.185852 188.105286,299.804382 
	C181.240585,299.483124 174.461014,297.342590 166.952988,295.649780 
M179.698074,262.016357 
	C172.401794,261.380493 165.092194,260.864166 157.815506,260.052612 
	C154.704483,259.705627 151.565201,259.022217 148.611023,257.995819 
	C144.064728,256.416290 143.704193,253.952454 147.564041,250.982437 
	C149.646667,249.379929 152.027817,247.997574 154.484924,247.080002 
	C162.931747,243.925629 171.471497,241.020096 179.975830,238.019714 
	C170.882736,238.723618 161.705154,239.539963 153.099655,242.204178 
	C141.578384,245.771057 130.447571,250.642929 119.290863,255.294510 
	C117.688812,255.962463 116.034721,258.511292 115.991913,260.229218 
	C115.961876,261.434326 118.533447,262.852631 120.125511,263.898071 
	C121.202995,264.605621 122.564682,265.026062 123.854874,265.240875 
	C133.686203,266.877563 143.482742,268.893585 153.380249,269.933960 
	C201.637985,275.006592 249.490128,270.510925 297.086273,262.680359 
	C302.748688,261.748749 307.807800,257.149994 313.146545,254.251083 
	C312.907288,253.732590 312.668030,253.214081 312.428741,252.695587 
	C268.724854,259.060730 224.914017,263.841187 179.698074,262.016357 
M207.676651,417.773834 
	C229.312088,417.463013 250.980789,417.792206 272.574066,416.670197 
	C296.508240,415.426544 320.361145,412.644928 343.425262,405.584045 
	C354.452362,402.208191 365.029297,397.662018 373.476501,389.420868 
	C375.480774,387.465515 376.942627,384.954132 378.653992,382.698517 
	C378.303772,382.367981 377.953552,382.037476 377.603302,381.706940 
	C374.882355,383.433807 372.213196,385.249359 369.432220,386.873413 
	C348.420135,399.143921 325.074982,403.830322 301.427551,406.862762 
	C257.136230,412.542419 212.702362,411.871307 168.269470,408.397156 
	C163.620178,408.033661 158.970551,407.673981 154.322281,407.297729 
	C149.893890,406.939270 145.467041,406.561493 141.039520,406.192261 
	C162.376801,413.637451 184.490524,416.039368 207.676651,417.773834 
M341.377289,294.906006 
	C334.773285,299.836426 328.169250,304.766846 321.565247,309.697266 
	C327.074860,308.969391 332.371887,307.434326 337.411804,305.293915 
	C351.999603,299.098633 365.437378,291.216431 374.355408,277.500336 
	C382.169952,265.481415 380.619629,251.680527 370.269226,242.668152 
	C358.742004,232.631119 345.598328,231.150620 331.500397,236.356094 
	C330.414124,236.757187 329.514099,237.662766 327.660736,238.923462 
	C333.124573,238.923462 337.438110,238.626266 341.698578,238.975723 
	C358.735870,240.373108 367.576996,255.272614 360.891876,270.966980 
	C356.785126,280.608185 349.612152,287.725525 341.377289,294.906006 
z"/>
<path fill="#ED252A" opacity="1.000000" stroke="none" 
	d="
M179.210327,157.358276 
	C182.763901,145.538635 190.176605,136.673080 198.737488,128.968369 
	C213.214478,115.939186 228.121033,103.376328 243.082077,90.899292 
	C256.155975,79.996086 267.123779,67.556007 271.148407,50.666164 
	C273.044556,42.708843 272.900696,34.251221 273.489716,26.006615 
	C273.636902,23.946539 273.042786,21.833508 272.643250,18.540649 
	C278.607758,24.493177 278.987030,31.323902 279.938446,37.647587 
	C283.289032,59.917046 276.703400,79.150185 260.872070,95.077904 
	C246.313141,109.725479 231.430252,124.051193 216.882629,138.709778 
	C213.271408,142.348541 210.271484,146.628357 207.221130,150.782806 
	C198.634293,162.477737 196.546280,175.139084 203.136459,188.324890 
	C208.998627,200.054016 215.576981,211.425919 221.876083,222.935333 
	C223.074783,225.125504 224.445663,227.221451 225.236633,229.891281 
	C224.578262,229.430771 223.815735,229.068253 223.276733,228.495438 
	C209.230270,213.566971 195.198090,198.611969 184.604782,180.892563 
	C180.366135,173.802582 176.898422,166.419861 179.210327,157.358276 
z"/>
<path fill="#158EC9" opacity="1.000000" stroke="none" 
	d="
M346.474487,373.719482 
	C348.645172,372.740906 350.491425,371.969757 352.239502,371.018341 
	C355.970032,368.988007 358.216766,366.215515 356.265320,361.559631 
	C361.801575,364.352264 362.973938,368.458649 358.269318,371.534851 
	C350.847076,376.387970 342.937134,380.927979 334.625610,383.900391 
	C315.882202,390.603546 296.174255,393.170380 276.412384,394.774353 
	C240.024628,397.727722 203.567032,398.530518 167.091034,396.964386 
	C145.146240,396.022186 123.171715,394.897186 101.685699,389.794006 
	C96.887863,388.654480 92.117432,386.904877 87.730072,384.662048 
	C82.706993,382.094299 82.247337,378.560455 85.670189,374.021606 
	C86.754593,372.583679 88.097717,371.185028 89.620445,370.257690 
	C104.003906,361.498169 119.758980,358.035400 136.567795,358.734589 
	C131.350082,360.197906 126.056595,361.441345 120.942070,363.204071 
	C117.683838,364.327026 114.416901,365.842590 111.643906,367.856781 
	C107.570847,370.815308 107.870850,374.333557 112.525078,376.089905 
	C118.236671,378.245239 124.201584,380.030396 130.214127,381.036438 
	C161.024216,386.191772 192.088226,388.119873 223.277649,386.543365 
	C252.863449,385.047974 282.454681,383.336914 311.962494,380.783875 
	C323.457581,379.789276 334.731140,376.234100 346.474487,373.719482 
z"/>
<path fill="#ED2429" opacity="1.000000" stroke="none" 
	d="
M241.979065,197.056793 
	C227.080368,173.580460 229.914398,152.101944 250.350815,133.854858 
	C268.611786,117.550179 290.617950,108.312836 313.594696,101.022881 
	C314.181732,100.836632 314.879517,100.999420 315.976196,101.828644 
	C313.153076,103.662094 310.203308,105.328568 307.528381,107.357376 
	C294.697510,117.088890 281.766022,126.702621 269.261292,136.840469 
	C265.348969,140.012268 262.385712,144.502213 259.466125,148.719742 
	C253.711731,157.032364 253.395615,165.640335 258.764343,174.426346 
	C263.785431,182.643494 268.894897,190.831848 273.403076,199.331207 
	C279.695496,211.194458 277.625000,222.362991 268.535339,231.879562 
	C262.675751,238.014374 255.985489,243.355804 249.667526,249.052795 
	C249.142883,248.576553 248.618225,248.100311 248.093582,247.624069 
	C249.592407,245.304932 251.017639,242.934143 252.602814,240.675613 
	C259.472107,230.888351 259.367523,221.260559 252.229675,211.628876 
	C248.766144,206.955276 245.518829,202.121414 241.979065,197.056793 
z"/>
<path fill="#128CC9" opacity="1.000000" stroke="none" 
	d="
M183.057953,338.336670 
	C199.755600,338.878479 216.073105,339.982910 232.338074,339.458282 
	C244.905121,339.052887 257.404297,336.588715 269.940277,335.095306 
	C271.053986,334.962646 272.403656,334.889954 273.326355,335.383148 
	C279.870026,338.880737 286.330902,342.533264 294.161652,346.882599 
	C282.523895,349.881470 272.082977,352.916473 261.485260,355.234467 
	C235.547791,360.907654 209.507690,360.160126 183.644394,354.883545 
	C176.938736,353.515472 170.234665,350.810242 164.289032,347.396881 
	C157.500687,343.499725 157.805984,337.037231 164.372650,332.643250 
	C167.583221,330.494873 171.324356,329.139404 175.385178,327.150940 
	C174.205246,335.023224 174.784393,335.797058 183.057953,338.336670 
z"/>
<path fill="#138DC9" opacity="1.000000" stroke="none" 
	d="
M167.297638,295.844452 
	C174.461014,297.342590 181.240585,299.483124 188.105286,299.804382 
	C217.627289,301.185852 247.019028,299.348480 276.183533,294.514526 
	C281.390472,293.651459 285.821899,293.732941 289.954742,297.676422 
	C292.289124,299.903809 295.555664,301.154236 298.850372,303.110809 
	C297.646912,303.706909 296.633423,304.392456 295.514923,304.736176 
	C264.068024,314.400757 231.896820,317.308380 199.250290,314.151306 
	C185.564026,312.827789 171.954407,310.456787 158.419388,307.967072 
	C153.892593,307.134369 148.463043,305.585938 147.966934,299.535889 
	C147.452011,293.256653 151.994965,289.980682 156.855957,287.461060 
	C159.746872,285.962585 162.970352,285.105774 167.548721,283.399994 
	C164.163727,288.321686 161.298569,292.266907 167.297638,295.844452 
z"/>
<path fill="#178ECA" opacity="1.000000" stroke="none" 
	d="
M180.178467,262.026550 
	C224.914017,263.841187 268.724854,259.060730 312.428741,252.695587 
	C312.668030,253.214081 312.907288,253.732590 313.146545,254.251083 
	C307.807800,257.149994 302.748688,261.748749 297.086273,262.680359 
	C249.490128,270.510925 201.637985,275.006592 153.380249,269.933960 
	C143.482742,268.893585 133.686203,266.877563 123.854874,265.240875 
	C122.564682,265.026062 121.202995,264.605621 120.125511,263.898071 
	C118.533447,262.852631 115.961876,261.434326 115.991913,260.229218 
	C116.034721,258.511292 117.688812,255.962463 119.290863,255.294510 
	C130.447571,250.642929 141.578384,245.771057 153.099655,242.204178 
	C161.705154,239.539963 170.882736,238.723618 179.975830,238.019714 
	C171.471497,241.020096 162.931747,243.925629 154.484924,247.080002 
	C152.027817,247.997574 149.646667,249.379929 147.564041,250.982437 
	C143.704193,253.952454 144.064728,256.416290 148.611023,257.995819 
	C151.565201,259.022217 154.704483,259.705627 157.815506,260.052612 
	C165.092194,260.864166 172.401794,261.380493 180.178467,262.026550 
z"/>
<path fill="#188FCA" opacity="1.000000" stroke="none" 
	d="
M207.202057,417.740295 
	C184.490524,416.039368 162.376801,413.637451 141.039520,406.192261 
	C145.467041,406.561493 149.893890,406.939270 154.322281,407.297729 
	C158.970551,407.673981 163.620178,408.033661 168.269470,408.397156 
	C212.702362,411.871307 257.136230,412.542419 301.427551,406.862762 
	C325.074982,403.830322 348.420135,399.143921 369.432220,386.873413 
	C372.213196,385.249359 374.882355,383.433807 377.603302,381.706940 
	C377.953552,382.037476 378.303772,382.367981 378.653992,382.698517 
	C376.942627,384.954132 375.480774,387.465515 373.476501,389.420868 
	C365.029297,397.662018 354.452362,402.208191 343.425262,405.584045 
	C320.361145,412.644928 296.508240,415.426544 272.574066,416.670197 
	C250.980789,417.792206 229.312088,417.463013 207.202057,417.740295 
z"/>
<path fill="#168EC9" opacity="1.000000" stroke="none" 
	d="
M341.649170,294.676270 
	C349.612152,287.725525 356.785126,280.608185 360.891876,270.966980 
	C367.576996,255.272614 358.735870,240.373108 341.698578,238.975723 
	C337.438110,238.626266 333.124573,238.923462 327.660736,238.923462 
	C329.514099,237.662766 330.414124,236.757187 331.500397,236.356094 
	C345.598328,231.150620 358.742004,232.631119 370.269226,242.668152 
	C380.619629,251.680527 382.169952,265.481415 374.355408,277.500336 
	C365.437378,291.216431 351.999603,299.098633 337.411804,305.293915 
	C332.371887,307.434326 327.074860,308.969391 321.565247,309.697266 
	C328.169250,304.766846 334.773285,299.836426 341.649170,294.676270 
z"/>
</svg>