<?xml version="1.0" encoding="UTF-8"?>
<!DOCTYPE svg PUBLIC "-//W3C//DTD SVG 1.1//EN" "http://www.w3.org/Graphics/SVG/1.1/DTD/svg11.dtd">
<svg xmlns="http://www.w3.org/2000/svg" version="1.1" width="438px" height="168px" style="shape-rendering:geometricPrecision; text-rendering:geometricPrecision; image-rendering:optimizeQuality; fill-rule:evenodd; clip-rule:evenodd" xmlns:xlink="http://www.w3.org/1999/xlink">
<g><path style="opacity:1" fill="#64bde9" d="M -0.5,-0.5 C 22.5,-0.5 45.5,-0.5 68.5,-0.5C 68.5,1.83333 68.5,4.16667 68.5,6.5C 67.1667,6.5 65.8333,6.5 64.5,6.5C 64.5,9.16667 64.5,11.8333 64.5,14.5C 63.1667,14.5 61.8333,14.5 60.5,14.5C 60.5,15.8333 60.5,17.1667 60.5,18.5C 57.9963,17.3608 55.3297,16.6941 52.5,16.5C 52.6602,18.1992 52.4935,19.8659 52,21.5C 50.6439,20.6198 49.1439,20.2865 47.5,20.5C 47.9228,17.7569 46.7561,16.4235 44,16.5C 40.3706,17.6296 37.8706,19.9629 36.5,23.5C 38.3615,24.5283 39.6948,26.0283 40.5,28C 41.448,28.4828 42.448,28.6495 43.5,28.5C 43.5,29.5 43.5,30.5 43.5,31.5C 45.5529,31.5979 47.2196,30.9313 48.5,29.5C 49.1667,29.8333 49.8333,30.1667 50.5,30.5C 51.3132,31.6527 52.3132,31.6527 53.5,30.5C 54.897,33.8806 54.5637,37.0472 52.5,40C 52.7355,40.8732 53.0688,41.7065 53.5,42.5C 59.1278,43.4954 64.7945,43.8288 70.5,43.5C 70.5,47.1667 70.5,50.8333 70.5,54.5C 72.5,54.8333 74.5,55.1667 76.5,55.5C 76.3433,56.8734 76.51,58.2068 77,59.5C 77.8984,57.3736 79.065,55.3736 80.5,53.5C 87.6805,51.6859 90.0139,54.3526 87.5,61.5C 84.1318,62.3004 81.7984,63.6337 80.5,65.5C 77.5893,67.4667 74.256,68.4667 70.5,68.5C 70.5,66.8333 70.5,65.1667 70.5,63.5C 68.1667,63.5 65.8333,63.5 63.5,63.5C 63.6476,66.3523 62.3143,68.019 59.5,68.5C 57.4287,67.7139 55.762,66.3806 54.5,64.5C 53.2054,65.0983 51.8721,65.5983 50.5,66C 49.6569,67.7866 49.4902,69.6199 50,71.5C 47.2157,75.2554 44.5491,75.2554 42,71.5C 41.3741,73.9913 40.5407,73.9913 39.5,71.5C 36.8808,73.5768 36.8808,75.7435 39.5,78C 38.4732,83.1049 35.9732,84.2716 32,81.5C 30.8333,83.1667 29.6667,84.8333 28.5,86.5C 29.8333,87.8333 31.1667,89.1667 32.5,90.5C 30.6247,95.6231 28.958,95.6231 27.5,90.5C 25.5204,94.0528 24.8537,97.7195 25.5,101.5C 26.7362,102.246 28.0695,102.579 29.5,102.5C 30.467,106.851 28.8004,109.185 24.5,109.5C 24.8333,111.5 25.1667,113.5 25.5,115.5C 27.5,115.5 29.5,115.5 31.5,115.5C 31.3573,117.262 31.6906,118.929 32.5,120.5C 27.5681,122.774 27.4014,125.44 32,128.5C 34.9309,126.92 37.2642,127.587 39,130.5C 38.6667,132.5 38.3333,134.5 38,136.5C 39.0195,137.687 40.1861,138.687 41.5,139.5C 42.916,137.861 44.5826,137.027 46.5,137C 48.5346,139.438 50.2013,142.105 51.5,145C 54.2617,146.077 55.9283,145.244 56.5,142.5C 58.3881,141.725 60.3881,141.725 62.5,142.5C 62.5,144.167 62.5,145.833 62.5,147.5C 64.8333,147.5 67.1667,147.5 69.5,147.5C 69.5349,142.622 71.8682,141.289 76.5,143.5C 76.8916,145.871 77.8916,146.538 79.5,145.5C 80.5981,146.397 80.5981,147.23 79.5,148C 76.2208,147.59 72.8875,147.923 69.5,149C 72.9756,150.254 76.6423,150.921 80.5,151C 80.1667,151.333 79.8333,151.667 79.5,152C 73.8036,152.257 68.1369,152.757 62.5,153.5C 59.5181,152.926 56.6848,151.926 54,150.5C 50.9523,153.292 47.4523,152.792 43.5,149C 44.985,147.244 44.6516,146.077 42.5,145.5C 40.7354,144.539 38.7354,144.205 36.5,144.5C 34.7376,144.643 33.0709,144.309 31.5,143.5C 28.8941,139.391 25.7274,135.724 22,132.5C 18.3898,125.502 15.8898,118.169 14.5,110.5C 14.1737,103.399 14.8404,96.3993 16.5,89.5C 15.7745,88.1331 15.1079,86.7997 14.5,85.5C 14.8333,85.5 15.1667,85.5 15.5,85.5C 16.9473,86.8852 17.9473,86.5518 18.5,84.5C 19.1954,81.0846 20.8621,78.4179 23.5,76.5C 25.1494,77.6485 26.6494,78.9818 28,80.5C 30.1449,78.3551 32.3116,76.1884 34.5,74C 32.1857,74.5903 30.0191,75.757 28,77.5C 26.0198,76.6853 24.5198,75.352 23.5,73.5C 27.1818,71.4317 28.5151,68.4317 27.5,64.5C 28.2508,65.376 28.7508,66.376 29,67.5C 31.039,65.1255 33.3723,63.1255 36,61.5C 37.3333,62.8333 38.6667,64.1667 40,65.5C 42.0685,59.7943 44.2352,54.1276 46.5,48.5C 45.9747,47.8076 45.3081,47.3076 44.5,47C 38.8259,45.7553 33.1593,45.5886 27.5,46.5C 28.8334,47.6199 29.3334,48.9532 29,50.5C 19.3887,57.9461 12.222,67.2794 7.5,78.5C 1.7372,90.1388 0.070537,102.472 2.5,115.5C 5.00377,128.095 10.6704,139.095 19.5,148.5C 20.1924,147.975 20.6924,147.308 21,146.5C 21.7083,147.381 22.5416,148.047 23.5,148.5C 25.7566,154.099 27.9233,159.766 30,165.5C 30.8717,163.387 32.3717,162.054 34.5,161.5C 39.9264,163.559 45.2597,165.559 50.5,167.5C 33.5,167.5 16.5,167.5 -0.5,167.5C -0.5,111.5 -0.5,55.5 -0.5,-0.5 Z"/></g>
<g><path style="opacity:1" fill="#6abfea" d="M 68.5,-0.5 C 75.1667,-0.5 81.8333,-0.5 88.5,-0.5C 88.5,0.5 88.5,1.5 88.5,2.5C 86.5,2.5 84.5,2.5 82.5,2.5C 82.955,4.36659 83.6216,6.19993 84.5,8C 82.7414,10.7357 82.408,13.569 83.5,16.5C 87.574,18.3896 91.9073,19.3896 96.5,19.5C 96.5,21.8333 96.5,24.1667 96.5,26.5C 95.1683,23.4599 92.835,21.2932 89.5,20C 85.0946,19.3041 80.7612,19.6374 76.5,21C 73.9705,24.3733 72.9705,28.2066 73.5,32.5C 75.8333,32.5 78.1667,32.5 80.5,32.5C 80.3841,29.1401 80.0508,25.8067 79.5,22.5C 84.3844,21.6042 87.0511,23.6042 87.5,28.5C 87.0741,32.7348 85.9074,36.7348 84,40.5C 83.3333,42.8333 83.3333,45.1667 84,47.5C 84.5123,43.4878 86.6789,40.8212 90.5,39.5C 91.4224,42.565 91.7557,45.565 91.5,48.5C 92.1667,47.5 92.8333,46.5 93.5,45.5C 94.1924,46.0253 94.6924,46.6919 95,47.5C 96.8138,46.2404 98.6471,46.2404 100.5,47.5C 98.9836,51.3621 96.3169,53.6955 92.5,54.5C 92.3505,55.552 92.5172,56.552 93,57.5C 93.6667,58.8333 94.3333,58.8333 95,57.5C 95.4955,59.4727 95.6621,61.4727 95.5,63.5C 94.6365,62.537 93.9698,62.537 93.5,63.5C 94.7828,67.9781 97.1162,68.6447 100.5,65.5C 101.901,65.0291 103.234,64.3624 104.5,63.5C 102.561,61.8778 102.228,60.0445 103.5,58C 104.449,57.3828 105.282,57.5494 106,58.5C 106.49,59.7932 106.657,61.1266 106.5,62.5C 105.966,66.1024 105.966,69.6024 106.5,73C 105.57,74.1939 104.903,75.5272 104.5,77C 105.836,79.678 106.67,82.5113 107,85.5C 108.708,88.3807 110.208,91.3807 111.5,94.5C 112.532,92.9604 113.865,92.4604 115.5,93C 115.043,93.414 114.709,93.914 114.5,94.5C 116.503,97.0037 117.836,99.837 118.5,103C 116.978,108.105 115.645,113.272 114.5,118.5C 113.667,115.5 112.833,112.5 112,109.5C 112.017,113.475 112.184,117.475 112.5,121.5C 117.688,121.865 119.354,124.532 117.5,129.5C 115.5,129.5 113.5,129.5 111.5,129.5C 111.785,131.288 111.452,132.955 110.5,134.5C 106.904,132.965 104.57,134.131 103.5,138C 98.7895,142.317 93.7895,146.151 88.5,149.5C 72.9805,157.129 57.3138,157.462 41.5,150.5C 40.1057,148.418 40.439,146.751 42.5,145.5C 44.6516,146.077 44.985,147.244 43.5,149C 47.4523,152.792 50.9523,153.292 54,150.5C 56.6848,151.926 59.5181,152.926 62.5,153.5C 68.1369,152.757 73.8036,152.257 79.5,152C 79.8333,151.667 80.1667,151.333 80.5,151C 76.6423,150.921 72.9756,150.254 69.5,149C 72.8875,147.923 76.2208,147.59 79.5,148C 80.5981,147.23 80.5981,146.397 79.5,145.5C 80.5832,145.461 81.5832,145.127 82.5,144.5C 83.2421,142.892 83.4087,141.225 83,139.5C 84.5122,138.743 85.8455,137.743 87,136.5C 90.122,140.296 92.9553,139.963 95.5,135.5C 95.1445,134.478 94.4778,133.811 93.5,133.5C 94.2414,128.195 96.7414,126.861 101,129.5C 102.167,127.667 103.333,125.833 104.5,124C 100.362,122.564 99.529,120.064 102,116.5C 103.699,115.594 105.533,115.261 107.5,115.5C 107.5,113.5 107.5,111.5 107.5,109.5C 104.512,109.845 103.179,108.512 103.5,105.5C 103.801,102.511 105.468,101.178 108.5,101.5C 108.167,99.5 107.833,97.5 107.5,95.5C 103.612,96.0113 101.279,94.3447 100.5,90.5C 101.981,89.5197 103.315,88.353 104.5,87C 103.333,85.1667 102.167,83.3333 101,81.5C 97.2476,84.3174 94.7476,83.3174 93.5,78.5C 96.1913,76.0018 95.858,73.8351 92.5,72C 90.5826,72.0275 88.916,72.8608 87.5,74.5C 83.906,73.1121 82.5727,70.4454 83.5,66.5C 82.209,66.7373 81.209,66.404 80.5,65.5C 81.7984,63.6337 84.1318,62.3004 87.5,61.5C 90.0139,54.3526 87.6805,51.6859 80.5,53.5C 79.065,55.3736 77.8984,57.3736 77,59.5C 76.51,58.2068 76.3433,56.8734 76.5,55.5C 74.5,55.1667 72.5,54.8333 70.5,54.5C 70.5,50.8333 70.5,47.1667 70.5,43.5C 64.7945,43.8288 59.1278,43.4954 53.5,42.5C 53.0688,41.7065 52.7355,40.8732 52.5,40C 54.5637,37.0472 54.897,33.8806 53.5,30.5C 52.3132,31.6527 51.3132,31.6527 50.5,30.5C 49.968,27.5404 49.3013,27.2071 48.5,29.5C 47.2196,30.9313 45.5529,31.5979 43.5,31.5C 43.5,30.5 43.5,29.5 43.5,28.5C 42.448,28.6495 41.448,28.4828 40.5,28C 39.6948,26.0283 38.3615,24.5283 36.5,23.5C 37.8706,19.9629 40.3706,17.6296 44,16.5C 46.7561,16.4235 47.9228,17.7569 47.5,20.5C 49.1439,20.2865 50.6439,20.6198 52,21.5C 52.4935,19.8659 52.6602,18.1992 52.5,16.5C 55.3297,16.6941 57.9963,17.3608 60.5,18.5C 60.5,17.1667 60.5,15.8333 60.5,14.5C 61.8333,14.5 63.1667,14.5 64.5,14.5C 64.5,11.8333 64.5,9.16667 64.5,6.5C 65.8333,6.5 67.1667,6.5 68.5,6.5C 68.5,4.16667 68.5,1.83333 68.5,-0.5 Z"/></g>
<g><path style="opacity:1" fill="#74c3eb" d="M 88.5,-0.5 C 111.833,-0.5 135.167,-0.5 158.5,-0.5C 158.5,1.83333 158.5,4.16667 158.5,6.5C 153.833,6.5 149.167,6.5 144.5,6.5C 144.5,9.16667 144.5,11.8333 144.5,14.5C 141.833,14.5 139.167,14.5 136.5,14.5C 136.815,22.4197 136.482,30.253 135.5,38C 136.833,38.6667 138.167,39.3333 139.5,40C 135.181,40.0759 130.848,39.9093 126.5,39.5C 123.932,38.3569 121.265,38.5236 118.5,40C 114.589,41.4442 111.256,43.6109 108.5,46.5C 106.284,47.2026 104.451,48.5359 103,50.5C 100.258,55.3995 97.758,59.7328 95.5,63.5C 95.6621,61.4727 95.4955,59.4727 95,57.5C 94.3333,58.8333 93.6667,58.8333 93,57.5C 92.5172,56.552 92.3505,55.552 92.5,54.5C 96.3169,53.6955 98.9836,51.3621 100.5,47.5C 98.6471,46.2404 96.8138,46.2404 95,47.5C 94.6924,46.6919 94.1924,46.0253 93.5,45.5C 92.8333,46.5 92.1667,47.5 91.5,48.5C 91.7557,45.565 91.4224,42.565 90.5,39.5C 91.2599,35.9186 91.7599,32.2519 92,28.5C 93,48.5 94,48.5 95,28.5C 95.3333,29.8333 95.6667,31.1667 96,32.5C 96.4955,30.5273 96.6621,28.5273 96.5,26.5C 96.5,24.1667 96.5,21.8333 96.5,19.5C 91.9073,19.3896 87.574,18.3896 83.5,16.5C 82.408,13.569 82.7414,10.7357 84.5,8C 83.6216,6.19993 82.955,4.36659 82.5,2.5C 84.5,2.5 86.5,2.5 88.5,2.5C 88.5,1.5 88.5,0.5 88.5,-0.5 Z"/></g>
<g><path style="opacity:1" fill="#80c8ed" d="M 158.5,-0.5 C 182.5,-0.5 206.5,-0.5 230.5,-0.5C 230.756,1.91243 229.756,3.57909 227.5,4.5C 228.025,5.19238 228.692,5.69238 229.5,6C 228.594,7.69946 228.261,9.5328 228.5,11.5C 226.517,11.1568 225.183,11.8235 224.5,13.5C 209.214,16.2358 196.381,23.5691 186,35.5C 185.487,36.5266 184.987,37.5266 184.5,38.5C 181.333,42.0035 179,46.0035 177.5,50.5C 170.825,50.6663 164.158,50.4996 157.5,50C 154.785,49.1224 152.451,47.6224 150.5,45.5C 149.186,46.3128 148.019,47.3128 147,48.5C 145.933,47.0569 144.766,45.7236 143.5,44.5C 143.709,43.914 144.043,43.414 144.5,43C 141.713,40.8864 139.046,41.053 136.5,43.5C 135.014,43.1029 133.514,42.7695 132,42.5C 129.588,44.0987 127.088,45.432 124.5,46.5C 124.5,47.8333 124.5,49.1667 124.5,50.5C 122.824,49.8166 122.157,48.4832 122.5,46.5C 119.612,46.2196 118.112,47.5529 118,50.5C 117.333,51.8333 116.667,51.8333 116,50.5C 114.132,53.7014 111.632,56.2014 108.5,58C 109.071,59.2051 109.738,60.3717 110.5,61.5C 111.736,60.7542 113.07,60.4208 114.5,60.5C 114.5,59.1667 114.5,57.8333 114.5,56.5C 116.143,56.5198 117.476,55.8532 118.5,54.5C 119.59,55.3914 119.59,56.3914 118.5,57.5C 121.281,60.6098 120.614,62.6098 116.5,63.5C 115.508,63.3284 114.842,63.6618 114.5,64.5C 113.305,64.8656 112.639,65.699 112.5,67C 113.723,68.7201 114.723,70.5534 115.5,72.5C 115.315,73.5837 114.982,74.5837 114.5,75.5C 113.5,75.5 112.5,75.5 111.5,75.5C 111.386,78.216 112.386,80.216 114.5,81.5C 113.293,87.3049 111.626,87.6382 109.5,82.5C 108.809,77.6171 108.143,72.7838 107.5,68C 108.861,66.4157 109.528,64.5824 109.5,62.5C 108.5,62.5 107.5,62.5 106.5,62.5C 106.657,61.1266 106.49,59.7932 106,58.5C 105.282,57.5494 104.449,57.3828 103.5,58C 102.228,60.0445 102.561,61.8778 104.5,63.5C 103.234,64.3624 101.901,65.0291 100.5,65.5C 99.4719,64.9264 98.4719,64.593 97.5,64.5C 99.6592,57.5029 103.326,51.5029 108.5,46.5C 114.035,43.0695 120.035,40.7361 126.5,39.5C 130.848,39.9093 135.181,40.0759 139.5,40C 138.167,39.3333 136.833,38.6667 135.5,38C 136.482,30.253 136.815,22.4197 136.5,14.5C 139.167,14.5 141.833,14.5 144.5,14.5C 144.5,11.8333 144.5,9.16667 144.5,6.5C 149.167,6.5 153.833,6.5 158.5,6.5C 158.5,4.16667 158.5,1.83333 158.5,-0.5 Z"/></g>
<g><path style="opacity:1" fill="#64beea" d="M 328.5,-0.5 C 364.833,-0.5 401.167,-0.5 437.5,-0.5C 437.5,28.8333 437.5,58.1667 437.5,87.5C 434.032,87.1005 431.698,85.2671 430.5,82C 432.961,80.0175 433.461,77.8509 432,75.5C 431.439,74.9781 430.772,74.6448 430,74.5C 424.404,77.2855 420.904,75.6188 419.5,69.5C 417.744,64.907 415.077,60.907 411.5,57.5C 417.632,52.7327 417.966,47.566 412.5,42C 404.108,40.5592 400.441,44.0592 401.5,52.5C 400.953,49.4247 399.953,46.4247 398.5,43.5C 389.266,37.0936 379.266,32.4269 368.5,29.5C 368.5,28.5 368.5,27.5 368.5,26.5C 362.482,26.053 356.482,25.3863 350.5,24.5C 347.025,25.4489 343.692,25.2822 340.5,24C 340.833,23.6667 341.167,23.3333 341.5,23C 338.447,22.8214 335.447,22.3214 332.5,21.5C 330.74,14.2741 329.406,6.9408 328.5,-0.5 Z"/></g>
<g><path style="opacity:1" fill="#8ecff0" d="M 230.5,-0.5 C 250.167,-0.5 269.833,-0.5 289.5,-0.5C 289.162,1.85398 288.662,4.18732 288,6.5C 284.293,12.0401 280.793,17.7068 277.5,23.5C 276.691,25.0709 276.357,26.7376 276.5,28.5C 274.37,26.8729 272.37,25.0396 270.5,23C 267.927,22.5723 265.594,22.9057 263.5,24C 262.751,22.2663 262.251,20.433 262,18.5C 250.115,12.7628 237.615,11.0961 224.5,13.5C 225.183,11.8235 226.517,11.1568 228.5,11.5C 228.261,9.5328 228.594,7.69946 229.5,6C 228.692,5.69238 228.025,5.19238 227.5,4.5C 229.756,3.57909 230.756,1.91243 230.5,-0.5 Z"/></g>
<g><path style="opacity:1" fill="#79c5eb" d="M 289.5,-0.5 C 302.5,-0.5 315.5,-0.5 328.5,-0.5C 329.406,6.9408 330.74,14.2741 332.5,21.5C 335.447,22.3214 338.447,22.8214 341.5,23C 341.167,23.3333 340.833,23.6667 340.5,24C 343.692,25.2822 347.025,25.4489 350.5,24.5C 356.482,25.3863 362.482,26.053 368.5,26.5C 368.5,27.5 368.5,28.5 368.5,29.5C 364.546,28.6187 360.546,27.9521 356.5,27.5C 342.951,26.1574 329.951,28.1574 317.5,33.5C 316.064,33.2454 314.564,32.9121 313,32.5C 313.333,31.1667 313.667,29.8333 314,28.5C 313.667,28.8333 313.333,29.1667 313,29.5C 311.484,26.9938 309.318,26.1605 306.5,27C 301.057,31.895 295.39,36.5617 289.5,41C 287.763,41.6123 286.763,40.9457 286.5,39C 291.138,33.361 296.138,28.0277 301.5,23C 300.747,21.513 299.914,21.3463 299,22.5C 298.51,21.2068 298.343,19.8734 298.5,18.5C 294.5,18.5 292.5,16.5 292.5,12.5C 291.325,12.281 290.325,12.6143 289.5,13.5C 286.143,19.352 282.809,25.0187 279.5,30.5C 278.5,29.8333 277.5,29.1667 276.5,28.5C 276.357,26.7376 276.691,25.0709 277.5,23.5C 280.793,17.7068 284.293,12.0401 288,6.5C 288.662,4.18732 289.162,1.85398 289.5,-0.5 Z"/></g>
<g><path style="opacity:1" fill="#2f95cf" d="M 261.5,28.5 C 266.053,29.7853 270.386,31.7853 274.5,34.5C 276.11,36.7254 277.443,39.0587 278.5,41.5C 287.273,44.9763 290.273,51.3096 287.5,60.5C 288.519,62.5107 289.519,64.5107 290.5,66.5C 290.85,70.5463 290.183,74.3797 288.5,78C 286.195,79.1343 284.195,80.6343 282.5,82.5C 280.239,81.9047 278.572,80.5714 277.5,78.5C 277.02,75.9954 276.02,73.6621 274.5,71.5C 275.747,69.677 276.414,67.677 276.5,65.5C 283.158,66.6555 285.158,64.1555 282.5,58C 280.527,57.5045 278.527,57.3379 276.5,57.5C 274.662,53.1947 275.328,49.3614 278.5,46C 277.307,43.9733 275.64,42.4733 273.5,41.5C 272.126,42.7113 270.626,43.7113 269,44.5C 266.953,43.3906 264.787,42.7239 262.5,42.5C 262.5,40.1667 262.5,37.8333 262.5,35.5C 259.833,35.5 257.167,35.5 254.5,35.5C 254.5,37.8333 254.5,40.1667 254.5,42.5C 252.323,42.5861 250.323,43.2528 248.5,44.5C 246.246,43.8763 244.579,42.543 243.5,40.5C 241.062,41.9308 239.396,43.9308 238.5,46.5C 229.213,47.7861 220.213,47.7861 211.5,46.5C 208.346,48.0259 205.013,48.6925 201.5,48.5C 199.583,47.3562 197.749,45.3562 196,42.5C 194.824,38.7399 195.99,35.9066 199.5,34C 201.809,34.7907 204.142,34.6241 206.5,33.5C 208.747,34.4056 210.747,35.7389 212.5,37.5C 215.086,38.48 217.753,38.8134 220.5,38.5C 220.5,36.1667 220.5,33.8333 220.5,31.5C 216.692,31.8368 213.026,31.3368 209.5,30C 213.519,24.6805 218.686,23.1805 225,25.5C 227.89,22.6411 231.39,21.3077 235.5,21.5C 239.448,21.6512 243.115,22.6512 246.5,24.5C 247.894,24.3793 249.228,24.046 250.5,23.5C 254.597,24.3846 258.264,26.0512 261.5,28.5 Z"/></g>
<g><path style="opacity:1" fill="#0e3c6a" d="M 41.5,24.5 C 42.675,24.281 43.675,24.6143 44.5,25.5C 42.9483,26.7979 41.9483,26.4646 41.5,24.5 Z"/></g>
<g><path style="opacity:1" fill="#4b9dcd" d="M 96.5,26.5 C 96.6621,28.5273 96.4955,30.5273 96,32.5C 95.6667,31.1667 95.3333,29.8333 95,28.5C 94,48.5 93,48.5 92,28.5C 91.7599,32.2519 91.2599,35.9186 90.5,39.5C 86.6789,40.8212 84.5123,43.4878 84,47.5C 83.3333,45.1667 83.3333,42.8333 84,40.5C 85.9074,36.7348 87.0741,32.7348 87.5,28.5C 87.0511,23.6042 84.3844,21.6042 79.5,22.5C 80.0508,25.8067 80.3841,29.1401 80.5,32.5C 78.1667,32.5 75.8333,32.5 73.5,32.5C 72.9705,28.2066 73.9705,24.3733 76.5,21C 80.7612,19.6374 85.0946,19.3041 89.5,20C 92.835,21.2932 95.1683,23.4599 96.5,26.5 Z"/></g>
<g><path style="opacity:1" fill="#bae5f8" d="M 276.5,28.5 C 277.5,29.1667 278.5,29.8333 279.5,30.5C 281.955,32.4061 283.955,34.7395 285.5,37.5C 284.125,40.5471 281.792,41.8804 278.5,41.5C 277.443,39.0587 276.11,36.7254 274.5,34.5C 270.386,31.7853 266.053,29.7853 261.5,28.5C 257.478,22.8302 252.145,21.1635 245.5,23.5C 238.903,18.2271 232.236,18.2271 225.5,23.5C 218.346,21.2424 212.679,23.2424 208.5,29.5C 203.242,29.6306 198.909,31.6306 195.5,35.5C 195.631,34.6236 195.298,33.9569 194.5,33.5C 193.076,38.7319 189.742,41.7319 184.5,42.5C 184.5,41.1667 184.5,39.8333 184.5,38.5C 184.987,37.5266 185.487,36.5266 186,35.5C 196.381,23.5691 209.214,16.2358 224.5,13.5C 237.615,11.0961 250.115,12.7628 262,18.5C 262.251,20.433 262.751,22.2663 263.5,24C 265.594,22.9057 267.927,22.5723 270.5,23C 272.37,25.0396 274.37,26.8729 276.5,28.5 Z"/></g>
<g><path style="opacity:1" fill="#072d55" d="M 50.5,30.5 C 49.8333,30.1667 49.1667,29.8333 48.5,29.5C 49.3013,27.2071 49.968,27.5404 50.5,30.5 Z"/></g>
<g><path style="opacity:1" fill="#3996c6" d="M 261.5,28.5 C 258.264,26.0512 254.597,24.3846 250.5,23.5C 249.228,24.046 247.894,24.3793 246.5,24.5C 243.115,22.6512 239.448,21.6512 235.5,21.5C 231.39,21.3077 227.89,22.6411 225,25.5C 218.686,23.1805 213.519,24.6805 209.5,30C 213.026,31.3368 216.692,31.8368 220.5,31.5C 220.5,33.8333 220.5,36.1667 220.5,38.5C 217.753,38.8134 215.086,38.48 212.5,37.5C 210.747,35.7389 208.747,34.4056 206.5,33.5C 204.142,34.6241 201.809,34.7907 199.5,34C 195.99,35.9066 194.824,38.7399 196,42.5C 197.749,45.3562 199.583,47.3562 201.5,48.5C 200.295,49.6719 200.295,51.0052 201.5,52.5C 200.675,53.3857 199.675,53.719 198.5,53.5C 198.627,48.8926 196.961,48.2259 193.5,51.5C 194.397,51.6691 195.397,52.0024 196.5,52.5C 193.869,54.0046 194.203,54.6713 197.5,54.5C 197.466,58.1762 195.799,59.3429 192.5,58C 195.027,60.4671 195.027,62.9671 192.5,65.5C 193.803,68.8503 193.137,69.1836 190.5,66.5C 189.808,67.0253 189.308,67.6919 189,68.5C 188.504,66.9651 188.67,65.4651 189.5,64C 189.095,63.0546 188.428,62.3879 187.5,62C 188.428,61.6121 189.095,60.9454 189.5,60C 187.936,58.3951 187.436,56.5618 188,54.5C 188.249,55.624 188.749,56.624 189.5,57.5C 190.23,56.0663 191.23,54.8996 192.5,54C 191.333,53.5 190.5,52.6667 190,51.5C 188.667,54.1667 187.333,54.1667 186,51.5C 183.895,54.1066 183.062,57.1066 183.5,60.5C 180.76,51.6392 183.76,45.3058 192.5,41.5C 193.513,39.4734 194.513,37.4734 195.5,35.5C 198.909,31.6306 203.242,29.6306 208.5,29.5C 212.679,23.2424 218.346,21.2424 225.5,23.5C 232.236,18.2271 238.903,18.2271 245.5,23.5C 252.145,21.1635 257.478,22.8302 261.5,28.5 Z"/></g>
<g><path style="opacity:1" fill="#c3e7f7" d="M 356.5,27.5 C 356.389,28.1174 356.056,28.6174 355.5,29C 357.41,29.4083 358.41,30.5749 358.5,32.5C 358.239,35.2918 357.239,37.6251 355.5,39.5C 348.679,40.3285 341.679,40.8285 334.5,41C 333.672,41.9147 332.672,42.5814 331.5,43C 332.167,43.3333 332.833,43.6667 333.5,44C 332.584,44.2784 331.918,44.7784 331.5,45.5C 327.752,46.5377 324.085,47.871 320.5,49.5C 321.5,51.5 322.5,53.5 323.5,55.5C 323.167,55.8333 322.833,56.1667 322.5,56.5C 314.711,55.6242 307.045,54.2908 299.5,52.5C 302.432,44.9795 305.599,37.6461 309,30.5C 310.333,32.5 311.667,34.5 313,36.5C 314.652,35.6006 316.152,34.6006 317.5,33.5C 329.951,28.1574 342.951,26.1574 356.5,27.5 Z"/></g>
<g><path style="opacity:1" fill="#112127" d="M 332.5,34.5 C 333.239,34.369 333.906,34.5357 334.5,35C 333.61,38.2924 331.943,38.9591 329.5,37C 331.119,36.7645 332.119,35.9311 332.5,34.5 Z"/></g>
<g><path style="opacity:1" fill="#3d5660" d="M 336.5,33.5 C 342.868,33.1703 349.202,33.5037 355.5,34.5C 352.333,34.8333 349.167,35.1667 346,35.5C 342.424,35.4848 339.258,34.8182 336.5,33.5 Z"/></g>
<g><path style="opacity:1" fill="#22434b" d="M 355.5,39.5 C 349.132,39.8297 342.798,39.4963 336.5,38.5C 339.667,38.1667 342.833,37.8333 346,37.5C 349.576,37.5152 352.742,38.1818 355.5,39.5 Z"/></g>
<g><path style="opacity:1" fill="#316f94" d="M 126.5,39.5 C 120.035,40.7361 114.035,43.0695 108.5,46.5C 111.256,43.6109 114.589,41.4442 118.5,40C 121.265,38.5236 123.932,38.3569 126.5,39.5 Z"/></g>
<g><path style="opacity:1" fill="#186fa9" d="M 277.5,78.5 C 276.007,79.4451 274.507,80.4451 273,81.5C 271.056,80.5606 269.389,79.2273 268,77.5C 265.912,78.3081 263.912,79.3081 262,80.5C 261.505,82.4727 261.338,84.4727 261.5,86.5C 258.833,86.5 256.167,86.5 253.5,86.5C 253.5,84.1667 253.5,81.8333 253.5,79.5C 251.323,79.4139 249.323,78.7472 247.5,77.5C 245.868,78.2974 244.368,79.2974 243,80.5C 240.888,79.392 239.054,77.892 237.5,76C 238.373,74.955 239.373,74.1217 240.5,73.5C 242.338,74.1018 244.171,74.4351 246,74.5C 248.124,73.7728 250.291,73.1062 252.5,72.5C 257.597,74.228 262.597,73.5613 267.5,70.5C 266.603,70.3309 265.603,69.9976 264.5,69.5C 266.563,67.439 268.23,65.1056 269.5,62.5C 270.731,63.6507 270.731,64.8173 269.5,66C 270.448,66.4828 271.448,66.6495 272.5,66.5C 273.606,59.2292 271.606,53.0625 266.5,48C 265.216,47.3162 264.049,47.4829 263,48.5C 261.82,47.3159 260.32,46.6493 258.5,46.5C 252.385,47.0088 246.385,47.3422 240.5,47.5C 239.833,47.1667 239.167,46.8333 238.5,46.5C 239.396,43.9308 241.062,41.9308 243.5,40.5C 244.579,42.543 246.246,43.8763 248.5,44.5C 250.323,43.2528 252.323,42.5861 254.5,42.5C 254.5,40.1667 254.5,37.8333 254.5,35.5C 257.167,35.5 259.833,35.5 262.5,35.5C 262.5,37.8333 262.5,40.1667 262.5,42.5C 264.787,42.7239 266.953,43.3906 269,44.5C 270.626,43.7113 272.126,42.7113 273.5,41.5C 275.64,42.4733 277.307,43.9733 278.5,46C 275.328,49.3614 274.662,53.1947 276.5,57.5C 278.527,57.3379 280.527,57.5045 282.5,58C 285.158,64.1555 283.158,66.6555 276.5,65.5C 276.414,67.677 275.747,69.677 274.5,71.5C 276.02,73.6621 277.02,75.9954 277.5,78.5 Z"/></g>
<g><path style="opacity:1" fill="#acddf2" d="M 356.5,27.5 C 360.546,27.9521 364.546,28.6187 368.5,29.5C 367.722,30.1556 367.056,30.9889 366.5,32C 374.689,31.2577 377.856,35.4244 376,44.5C 374.961,45.2438 374.461,46.2438 374.5,47.5C 374.5,48.1667 374.5,48.8333 374.5,49.5C 373.861,48.9032 373.528,48.0698 373.5,47C 374.403,44.9211 375.069,42.7544 375.5,40.5C 374.807,35.8487 372.141,34.3487 367.5,36C 364.875,38.8815 364.875,41.7148 367.5,44.5C 366.5,44.5 365.5,44.5 364.5,44.5C 355.364,42.0674 346.031,41.9007 336.5,44C 335.429,44.8518 334.429,45.6851 333.5,46.5C 332.833,46.1667 332.167,45.8333 331.5,45.5C 331.918,44.7784 332.584,44.2784 333.5,44C 332.833,43.6667 332.167,43.3333 331.5,43C 332.672,42.5814 333.672,41.9147 334.5,41C 341.679,40.8285 348.679,40.3285 355.5,39.5C 357.239,37.6251 358.239,35.2918 358.5,32.5C 358.41,30.5749 357.41,29.4083 355.5,29C 356.056,28.6174 356.389,28.1174 356.5,27.5 Z"/></g>
<g><path style="opacity:1" fill="#f4fcfd" d="M 374.5,49.5 C 374.5,51.8333 374.5,54.1667 374.5,56.5C 371.833,56.5 369.167,56.5 366.5,56.5C 366.833,52.5 367.167,48.5 367.5,44.5C 364.875,41.7148 364.875,38.8815 367.5,36C 372.141,34.3487 374.807,35.8487 375.5,40.5C 375.069,42.7544 374.403,44.9211 373.5,47C 373.528,48.0698 373.861,48.9032 374.5,49.5 Z"/></g>
<g><path style="opacity:1" fill="#3894c6" d="M 411.5,57.5 C 407.017,57.9253 403.683,56.2587 401.5,52.5C 400.441,44.0592 404.108,40.5592 412.5,42C 417.966,47.566 417.632,52.7327 411.5,57.5 Z"/></g>
<g><path style="opacity:1" fill="#3086b9" d="M 238.5,46.5 C 239.167,46.8333 239.833,47.1667 240.5,47.5C 241.833,49.5 241.833,51.5 240.5,53.5C 238.415,52.6308 235.915,51.2975 233,49.5C 231.667,52.1667 230.333,52.1667 229,49.5C 226.667,52.1667 224.333,52.1667 222,49.5C 218.14,50.7283 215.64,52.0616 214.5,53.5C 211.398,53.5034 211.065,53.0034 213.5,52C 212.333,51.5 211.5,50.6667 211,49.5C 210.536,50.0944 210.369,50.7611 210.5,51.5C 208.876,51.6399 207.71,50.9733 207,49.5C 206.323,51.689 205.156,52.0224 203.5,50.5C 202.17,52.3469 202.503,53.8469 204.5,55C 202.803,55.3845 201.137,55.2178 199.5,54.5C 198.833,54.5 198.167,54.5 197.5,54.5C 194.203,54.6713 193.869,54.0046 196.5,52.5C 195.397,52.0024 194.397,51.6691 193.5,51.5C 196.961,48.2259 198.627,48.8926 198.5,53.5C 199.675,53.719 200.675,53.3857 201.5,52.5C 200.295,51.0052 200.295,49.6719 201.5,48.5C 205.013,48.6925 208.346,48.0259 211.5,46.5C 220.213,47.7861 229.213,47.7861 238.5,46.5 Z"/></g>
<g><path style="opacity:1" fill="#8fd1f1" d="M 368.5,29.5 C 379.266,32.4269 389.266,37.0936 398.5,43.5C 399.953,46.4247 400.953,49.4247 401.5,52.5C 403.683,56.2587 407.017,57.9253 411.5,57.5C 415.077,60.907 417.744,64.907 419.5,69.5C 417.833,69.5 416.167,69.5 414.5,69.5C 415.011,73.3879 413.345,75.7212 409.5,76.5C 408.167,75.5 406.833,74.5 405.5,73.5C 404.817,73.8627 404.15,74.1961 403.5,74.5C 403.437,71.8049 402.437,70.8049 400.5,71.5C 400.834,68.509 399.834,66.1757 397.5,64.5C 397.611,63.8826 397.944,63.3826 398.5,63C 395.457,62.6682 393.457,61.1682 392.5,58.5C 400.56,58.1131 407.06,61.1131 412,67.5C 410.648,63.4796 407.814,60.6462 403.5,59C 398.599,57.6746 393.599,57.1746 388.5,57.5C 388.719,56.325 388.386,55.325 387.5,54.5C 383.267,51.8852 378.934,49.5518 374.5,47.5C 374.461,46.2438 374.961,45.2438 376,44.5C 377.856,35.4244 374.689,31.2577 366.5,32C 367.056,30.9889 367.722,30.1556 368.5,29.5 Z"/></g>
<g><path style="opacity:1" fill="#092f56" d="M 405.5,45.5 C 406.794,46.2899 407.961,47.2899 409,48.5C 412.476,45.8141 412.976,46.1475 410.5,49.5C 413.153,54.1894 412.653,54.5228 409,50.5C 405.524,53.1859 405.024,52.8525 407.5,49.5C 406.37,48.3777 405.703,47.0443 405.5,45.5 Z"/></g>
<g><path style="opacity:1" fill="#112d4a" d="M 333.5,46.5 C 334.645,47.7927 334.311,48.9593 332.5,50C 331.423,50.4696 330.423,50.3029 329.5,49.5C 331.076,48.8571 332.41,47.8571 333.5,46.5 Z"/></g>
<g><path style="opacity:1" fill="#0e3c55" d="M 355.5,49.5 C 355.672,50.4916 355.338,51.1583 354.5,51.5C 348.463,51.8293 342.463,51.4959 336.5,50.5C 342.798,49.5037 349.132,49.1703 355.5,49.5 Z"/></g>
<g><path style="opacity:1" fill="#b8e4f5" d="M 23.5,73.5 C 22.8485,72.9094 22.1818,72.2427 21.5,71.5C 21.1667,71.8333 20.8333,72.1667 20.5,72.5C 21.5244,73.8518 22.5244,75.1851 23.5,76.5C 20.8621,78.4179 19.1954,81.0846 18.5,84.5C 17.391,84.5569 16.391,84.8902 15.5,85.5C 15.1667,85.5 14.8333,85.5 14.5,85.5C 11.2205,85.7411 8.55382,87.0744 6.5,89.5C 6.16667,89.1667 5.83333,88.8333 5.5,88.5C 7.02666,85.3404 7.69333,82.007 7.5,78.5C 12.222,67.2794 19.3887,57.9461 29,50.5C 29.3334,48.9532 28.8334,47.6199 27.5,46.5C 33.1593,45.5886 38.8259,45.7553 44.5,47C 45.3081,47.3076 45.9747,47.8076 46.5,48.5C 44.2352,54.1276 42.0685,59.7943 40,65.5C 38.6667,64.1667 37.3333,62.8333 36,61.5C 33.3723,63.1255 31.039,65.1255 29,67.5C 28.7508,66.376 28.2508,65.376 27.5,64.5C 28.5151,68.4317 27.1818,71.4317 23.5,73.5 Z"/></g>
<g><path style="opacity:1" fill="#072442" d="M 108.5,46.5 C 103.326,51.5029 99.6592,57.5029 97.5,64.5C 98.4719,64.593 99.4719,64.9264 100.5,65.5C 97.1162,68.6447 94.7828,67.9781 93.5,63.5C 93.9698,62.537 94.6365,62.537 95.5,63.5C 97.758,59.7328 100.258,55.3995 103,50.5C 104.451,48.5359 106.284,47.2026 108.5,46.5 Z"/></g>
<g><path style="opacity:1" fill="#56a4cb" d="M 210.5,51.5 C 209.432,52.4345 208.099,52.7678 206.5,52.5C 206.586,54.677 207.253,56.677 208.5,58.5C 207.522,59.8013 207.855,60.968 209.5,62C 209.046,64.0364 208.213,65.8697 207,67.5C 206.667,66.8333 206.333,66.1667 206,65.5C 204.266,66.2489 202.433,66.7489 200.5,67C 201.345,68.5581 200.679,69.5581 198.5,70C 201.167,69.6667 203.833,69.3333 206.5,69C 204.255,71.2351 201.755,72.0685 199,71.5C 198.275,73.158 197.108,73.658 195.5,73C 198.276,71.2213 197.943,70.2213 194.5,70C 196.863,67.9164 196.863,66.083 194.5,64.5C 195.5,64.5 196.5,64.5 197.5,64.5C 197.782,69.579 198.782,69.7457 200.5,65C 202.085,64.9152 203.418,64.7486 204.5,64.5C 202.022,62.4363 202.022,60.4363 204.5,58.5C 203.418,58.2514 202.085,58.0848 200.5,58C 199.663,56.9887 199.33,55.8221 199.5,54.5C 201.137,55.2178 202.803,55.3845 204.5,55C 202.503,53.8469 202.17,52.3469 203.5,50.5C 205.156,52.0224 206.323,51.689 207,49.5C 207.71,50.9733 208.876,51.6399 210.5,51.5 Z"/></g>
<g><path style="opacity:1" fill="#348fc3" d="M 59.5,46.5 C 56.558,48.2197 55.8913,50.553 57.5,53.5C 58.1522,54.7251 59.3189,55.3917 61,55.5C 65.9118,53.8118 66.7452,50.8118 63.5,46.5C 63.5064,45.5826 62.5064,45.0826 60.5,45C 63.4816,44.502 66.4816,44.3354 69.5,44.5C 69.5,49.1667 69.5,53.8333 69.5,58.5C 66.1667,58.5 62.8333,58.5 59.5,58.5C 59.6329,63.2717 58.2996,63.4384 55.5,59C 54.552,58.5172 53.552,58.3505 52.5,58.5C 52.5,53.8333 52.5,49.1667 52.5,44.5C 54.8568,44.3367 57.1902,44.5034 59.5,45C 58.2617,45.69 58.2617,46.19 59.5,46.5 Z"/></g>
<g><path style="opacity:1" fill="#09325d" d="M 59.5,46.5 C 60.8333,46.5 62.1667,46.5 63.5,46.5C 66.7452,50.8118 65.9118,53.8118 61,55.5C 59.3189,55.3917 58.1522,54.7251 57.5,53.5C 55.8913,50.553 56.558,48.2197 59.5,46.5 Z"/></g>
<g><path style="opacity:1" fill="#4c94c5" d="M 57.5,53.5 C 57.3852,48.6724 59.5519,47.3391 64,49.5C 63.7416,53.7819 61.5749,55.1152 57.5,53.5 Z"/></g>
<g><path style="opacity:1" fill="#24596f" d="M 354.5,57.5 C 355.833,58.1667 355.833,58.8333 354.5,59.5C 330.5,58.8333 330.5,58.1667 354.5,57.5 Z"/></g>
<g><path style="opacity:1" fill="#062441" d="M 388.5,57.5 C 393.599,57.1746 398.599,57.6746 403.5,59C 407.814,60.6462 410.648,63.4796 412,67.5C 407.06,61.1131 400.56,58.1131 392.5,58.5C 388.813,59.176 385.48,60.676 382.5,63C 384.256,63.2022 385.922,63.7022 387.5,64.5C 387.167,64.8333 386.833,65.1667 386.5,65.5C 384.591,64.6518 382.591,64.3184 380.5,64.5C 380.187,61.7531 380.52,59.0865 381.5,56.5C 381.88,58.0207 382.046,59.6874 382,61.5C 384.314,60.2668 386.481,58.9334 388.5,57.5 Z"/></g>
<g><path style="opacity:1" fill="#b0dff4" d="M 195.5,35.5 C 194.513,37.4734 193.513,39.4734 192.5,41.5C 183.76,45.3058 180.76,51.6392 183.5,60.5C 182.609,62.6089 181.442,64.6089 180,66.5C 179.248,69.8936 179.415,73.227 180.5,76.5C 181.833,76.8333 183.167,77.1667 184.5,77.5C 183.624,78.2508 182.624,78.7508 181.5,79C 182.833,80.3333 184.167,81.6667 185.5,83C 202.939,84.1247 220.273,84.958 237.5,85.5C 220.497,85.6666 203.497,85.4999 186.5,85C 185.391,84.3623 184.225,83.8623 183,83.5C 180.738,84.3825 178.571,85.3825 176.5,86.5C 173.683,85.3468 171.016,84.0134 168.5,82.5C 170.092,73.4873 172.092,64.4873 174.5,55.5C 174.167,54.8333 173.833,54.1667 173.5,53.5C 171.618,52.9067 169.785,52.2401 168,51.5C 164.333,52.8333 160.667,52.8333 157,51.5C 155.795,52.0712 154.628,52.7379 153.5,53.5C 154.748,55.69 156.414,56.0234 158.5,54.5C 159.382,55.7598 160.382,56.9264 161.5,58C 160.272,58.779 159.272,59.779 158.5,61C 159.148,62.4397 159.481,63.9397 159.5,65.5C 161.167,65.5 162.833,65.5 164.5,65.5C 165.401,69.2407 164.068,71.2407 160.5,71.5C 160.5,73.1667 160.5,74.8333 160.5,76.5C 162.103,76.3118 163.437,76.8118 164.5,78C 163.62,79.3561 163.286,80.8561 163.5,82.5C 161.284,82.2746 159.617,83.1079 158.5,85C 161.982,90.6521 160.649,93.3188 154.5,93C 153.426,93.7387 152.759,94.7387 152.5,96C 154.018,100.238 152.684,101.738 148.5,100.5C 146.93,97.0474 144.263,95.0474 140.5,94.5C 144.593,91.9921 148.093,88.6588 151,84.5C 154.724,73.2161 152.558,63.3827 144.5,55C 140.796,52.7281 136.963,51.8948 133,52.5C 132.055,52.0946 131.388,51.428 131,50.5C 129.846,52.9574 128.512,52.9574 127,50.5C 125.929,53.1125 125.095,53.1125 124.5,50.5C 124.5,49.1667 124.5,47.8333 124.5,46.5C 127.088,45.432 129.588,44.0987 132,42.5C 133.514,42.7695 135.014,43.1029 136.5,43.5C 139.046,41.053 141.713,40.8864 144.5,43C 144.043,43.414 143.709,43.914 143.5,44.5C 144.766,45.7236 145.933,47.0569 147,48.5C 148.019,47.3128 149.186,46.3128 150.5,45.5C 152.451,47.6224 154.785,49.1224 157.5,50C 164.158,50.4996 170.825,50.6663 177.5,50.5C 179,46.0035 181.333,42.0035 184.5,38.5C 184.5,39.8333 184.5,41.1667 184.5,42.5C 189.742,41.7319 193.076,38.7319 194.5,33.5C 195.298,33.9569 195.631,34.6236 195.5,35.5 Z"/></g>
<g><path style="opacity:1" fill="#236ea0" d="M 240.5,73.5 C 239.232,72.213 239.565,71.213 241.5,70.5C 240.655,65.4727 237.655,63.4727 232.5,64.5C 232.5,61.8333 232.5,59.1667 232.5,56.5C 235.948,57.0994 238.614,56.0994 240.5,53.5C 241.833,51.5 241.833,49.5 240.5,47.5C 246.385,47.3422 252.385,47.0088 258.5,46.5C 260.32,46.6493 261.82,47.3159 263,48.5C 264.049,47.4829 265.216,47.3162 266.5,48C 271.606,53.0625 273.606,59.2292 272.5,66.5C 271.448,66.6495 270.448,66.4828 269.5,66C 270.731,64.8173 270.731,63.6507 269.5,62.5C 268.23,65.1056 266.563,67.439 264.5,69.5C 265.603,69.9976 266.603,70.3309 267.5,70.5C 262.597,73.5613 257.597,74.228 252.5,72.5C 250.291,73.1062 248.124,73.7728 246,74.5C 244.171,74.4351 242.338,74.1018 240.5,73.5 Z"/></g>
<g><path style="opacity:1" fill="#073356" d="M 254.5,54.5 C 257.713,55.0601 260.713,56.2268 263.5,58C 264.576,59.7261 264.743,61.5594 264,63.5C 260.949,64.0933 258.283,65.4266 256,67.5C 253.091,66.5715 251.925,64.5715 252.5,61.5C 248.649,60.9709 245.149,61.6375 242,63.5C 241.667,62.8333 241.333,62.1667 241,61.5C 240.259,62.6405 239.425,62.6405 238.5,61.5C 237.14,63.9812 236.14,63.6478 235.5,60.5C 241.128,59.5046 246.794,59.1712 252.5,59.5C 252.392,57.4862 253.058,55.8195 254.5,54.5 Z"/></g>
<g><path style="opacity:1" fill="#5896bf" d="M 259.5,58.5 C 262.5,58.1667 263.833,59.5 263.5,62.5C 262.167,62.5 260.833,62.5 259.5,62.5C 259.5,61.1667 259.5,59.8333 259.5,58.5 Z"/></g>
<g><path style="opacity:1" fill="#4a89ac" d="M 255.5,55.5 C 257.252,55.4176 258.252,56.2509 258.5,58C 256.947,61.2829 255.281,61.2829 253.5,58C 254.381,57.2917 255.047,56.4584 255.5,55.5 Z"/></g>
<g><path style="opacity:1" fill="#5995c4" d="M 254.5,61.5 C 256.346,61.2222 257.68,61.8888 258.5,63.5C 257.68,65.1112 256.346,65.7778 254.5,65.5C 254.5,64.1667 254.5,62.8333 254.5,61.5 Z"/></g>
<g><path style="opacity:1" fill="#88ccee" d="M 364.5,44.5 C 360.845,43.925 357.845,44.925 355.5,47.5C 355.5,48.1667 355.5,48.8333 355.5,49.5C 349.132,49.1703 342.798,49.5037 336.5,50.5C 342.463,51.4959 348.463,51.8293 354.5,51.5C 349.349,52.3267 344.016,52.8267 338.5,53C 339.328,53.9147 340.328,54.5814 341.5,55C 345.167,55.3333 348.833,55.6667 352.5,56C 353.416,56.2784 354.082,56.7784 354.5,57.5C 330.5,58.1667 330.5,58.8333 354.5,59.5C 354.611,60.1174 354.944,60.6174 355.5,61C 349.084,60.8715 343.084,61.7048 337.5,63.5C 337.611,64.1174 337.944,64.6174 338.5,65C 343.554,65.781 348.554,65.6143 353.5,64.5C 354.705,66.1376 356.038,66.4709 357.5,65.5C 358.386,66.325 358.719,67.325 358.5,68.5C 357.325,68.281 356.325,68.6143 355.5,69.5C 357.655,70.0014 359.322,71.0014 360.5,72.5C 356.958,72.6198 353.458,72.2865 350,71.5C 345.484,72.6066 340.984,73.7733 336.5,75C 336.043,75.414 335.709,75.914 335.5,76.5C 343.323,77.1667 350.99,77.8334 358.5,78.5C 351.159,78.3337 343.826,78.5003 336.5,79C 334.685,80.77 333.018,80.6033 331.5,78.5C 326.588,77.6465 320.921,77.1465 314.5,77C 313.751,75.2663 313.251,73.433 313,71.5C 311.933,70.8095 310.766,70.3095 309.5,70C 311.5,69.6667 313.5,69.3333 315.5,69C 309.915,67.8144 304.249,67.1478 298.5,67C 297.833,65.6667 297.167,64.3333 296.5,63C 304.858,62.6235 313.191,61.9568 321.5,61C 323.707,59.2077 325.041,56.8744 325.5,54C 322.823,51.4864 323.323,49.6531 327,48.5C 327.902,48.7432 328.735,49.0766 329.5,49.5C 330.423,50.3029 331.423,50.4696 332.5,50C 334.311,48.9593 334.645,47.7927 333.5,46.5C 334.429,45.6851 335.429,44.8518 336.5,44C 346.031,41.9007 355.364,42.0674 364.5,44.5 Z"/></g>
<g><path style="opacity:1" fill="#172d50" d="M 333.5,58.5 C 334.645,59.7927 334.311,60.9593 332.5,62C 331.275,62.5628 330.275,62.2295 329.5,61C 331.32,60.7996 332.653,59.9663 333.5,58.5 Z"/></g>
<g><path style="opacity:1" fill="#0b465d" d="M 355.5,47.5 C 349.463,47.8293 343.463,47.4959 337.5,46.5C 340.5,46.1667 343.5,45.8333 346.5,45.5C 349.913,45.517 352.913,46.1836 355.5,47.5 Z"/></g>
<g><path style="opacity:1" fill="#1a2a35" d="M 20.5,66.5 C 21.2674,67.172 21.9341,68.0053 22.5,69C 20.9387,69.1881 20.272,68.3547 20.5,66.5 Z"/></g>
<g><path style="opacity:1" fill="#3094cc" d="M 80.5,65.5 C 81.209,66.404 82.209,66.7373 83.5,66.5C 82.5727,70.4454 83.906,73.1121 87.5,74.5C 88.916,72.8608 90.5826,72.0275 92.5,72C 95.858,73.8351 96.1913,76.0018 93.5,78.5C 94.7476,83.3174 97.2476,84.3174 101,81.5C 102.167,83.3333 103.333,85.1667 104.5,87C 103.315,88.353 101.981,89.5197 100.5,90.5C 101.279,94.3447 103.612,96.0113 107.5,95.5C 107.833,97.5 108.167,99.5 108.5,101.5C 105.468,101.178 103.801,102.511 103.5,105.5C 103.179,108.512 104.512,109.845 107.5,109.5C 107.5,111.5 107.5,113.5 107.5,115.5C 105.533,115.261 103.699,115.594 102,116.5C 99.529,120.064 100.362,122.564 104.5,124C 103.333,125.833 102.167,127.667 101,129.5C 96.7414,126.861 94.2414,128.195 93.5,133.5C 92.2794,134.028 91.1127,134.695 90,135.5C 88.9562,133.285 88.2895,130.952 88,128.5C 87.5831,127.244 86.7498,126.577 85.5,126.5C 98.114,111.432 97.4474,96.9317 83.5,83C 68.8448,74.2622 55.6781,76.0956 44,88.5C 34.8706,104.312 37.3706,117.979 51.5,129.5C 52.7079,130.234 54.0413,130.567 55.5,130.5C 55.9038,131.756 56.5705,132.923 57.5,134C 56.9444,135.011 56.2778,135.844 55.5,136.5C 56.3414,138.379 56.6747,140.379 56.5,142.5C 55.9283,145.244 54.2617,146.077 51.5,145C 50.2013,142.105 48.5346,139.438 46.5,137C 44.5826,137.027 42.916,137.861 41.5,139.5C 40.1861,138.687 39.0195,137.687 38,136.5C 38.3333,134.5 38.6667,132.5 39,130.5C 37.2642,127.587 34.9309,126.92 32,128.5C 27.4014,125.44 27.5681,122.774 32.5,120.5C 31.6906,118.929 31.3573,117.262 31.5,115.5C 29.5,115.5 27.5,115.5 25.5,115.5C 25.1667,113.5 24.8333,111.5 24.5,109.5C 28.8004,109.185 30.467,106.851 29.5,102.5C 28.0695,102.579 26.7362,102.246 25.5,101.5C 24.8537,97.7195 25.5204,94.0528 27.5,90.5C 28.958,95.6231 30.6247,95.6231 32.5,90.5C 31.1667,89.1667 29.8333,87.8333 28.5,86.5C 29.6667,84.8333 30.8333,83.1667 32,81.5C 35.9732,84.2716 38.4732,83.1049 39.5,78C 36.8808,75.7435 36.8808,73.5768 39.5,71.5C 40.5407,73.9913 41.3741,73.9913 42,71.5C 44.5491,75.2554 47.2157,75.2554 50,71.5C 49.4902,69.6199 49.6569,67.7866 50.5,66C 51.8721,65.5983 53.2054,65.0983 54.5,64.5C 55.762,66.3806 57.4287,67.7139 59.5,68.5C 62.3143,68.019 63.6476,66.3523 63.5,63.5C 65.8333,63.5 68.1667,63.5 70.5,63.5C 70.5,65.1667 70.5,66.8333 70.5,68.5C 74.256,68.4667 77.5893,67.4667 80.5,65.5 Z"/></g>
<g><path style="opacity:1" fill="#384f63" d="M 15.5,71.5 C 16.6431,71.9081 17.6431,72.5748 18.5,73.5C 16.6043,74.6394 15.6043,73.9728 15.5,71.5 Z"/></g>
<g><path style="opacity:1" fill="#0b3157" d="M 397.5,64.5 C 399.834,66.1757 400.834,68.509 400.5,71.5C 398.918,72.8758 397.085,73.8758 395,74.5C 393.05,74.2926 391.884,73.2926 391.5,71.5C 389.668,66.3118 391.668,63.9785 397.5,64.5 Z"/></g>
<g><path style="opacity:1" fill="#7fc1e4" d="M 391.5,71.5 C 391.473,65.9841 393.64,64.6508 398,67.5C 398.427,72.4295 396.26,73.7628 391.5,71.5 Z"/></g>
<g><path style="opacity:1" fill="#3192c9" d="M 240.5,53.5 C 238.614,56.0994 235.948,57.0994 232.5,56.5C 232.5,59.1667 232.5,61.8333 232.5,64.5C 237.655,63.4727 240.655,65.4727 241.5,70.5C 239.565,71.213 239.232,72.213 240.5,73.5C 239.373,74.1217 238.373,74.955 237.5,76C 239.054,77.892 240.888,79.392 243,80.5C 244.368,79.2974 245.868,78.2974 247.5,77.5C 249.323,78.7472 251.323,79.4139 253.5,79.5C 253.5,81.8333 253.5,84.1667 253.5,86.5C 256.167,86.5 258.833,86.5 261.5,86.5C 261.338,84.4727 261.505,82.4727 262,80.5C 263.912,79.3081 265.912,78.3081 268,77.5C 269.389,79.2273 271.056,80.5606 273,81.5C 274.507,80.4451 276.007,79.4451 277.5,78.5C 278.572,80.5714 280.239,81.9047 282.5,82.5C 284.195,80.6343 286.195,79.1343 288.5,78C 290.183,74.3797 290.85,70.5463 290.5,66.5C 292.807,73.075 291.141,78.575 285.5,83C 280.909,84.0526 276.242,84.886 271.5,85.5C 269.071,93.8953 263.404,97.5619 254.5,96.5C 254.5,99.8333 254.5,103.167 254.5,106.5C 249.067,107.187 248.401,106.021 252.5,103C 246.391,104.88 246.057,107.713 251.5,111.5C 251.833,111.333 252.167,111.167 252.5,111C 248.401,107.979 249.067,106.813 254.5,107.5C 254.5,111.167 254.5,114.833 254.5,118.5C 252.076,118.192 249.743,118.526 247.5,119.5C 249.396,120.466 251.396,120.799 253.5,120.5C 253.666,125.179 253.499,129.845 253,134.5C 252.869,131.629 251.703,129.295 249.5,127.5C 245.896,128.568 243.896,130.901 243.5,134.5C 243.829,120.323 243.496,106.323 242.5,92.5C 242.525,88.8602 240.858,86.5269 237.5,85.5C 220.273,84.958 202.939,84.1247 185.5,83C 184.167,81.6667 182.833,80.3333 181.5,79C 182.624,78.7508 183.624,78.2508 184.5,77.5C 183.167,77.1667 181.833,76.8333 180.5,76.5C 179.415,73.227 179.248,69.8936 180,66.5C 181.442,64.6089 182.609,62.6089 183.5,60.5C 183.062,57.1066 183.895,54.1066 186,51.5C 187.333,54.1667 188.667,54.1667 190,51.5C 190.5,52.6667 191.333,53.5 192.5,54C 191.23,54.8996 190.23,56.0663 189.5,57.5C 188.749,56.624 188.249,55.624 188,54.5C 187.436,56.5618 187.936,58.3951 189.5,60C 189.095,60.9454 188.428,61.6121 187.5,62C 188.428,62.3879 189.095,63.0546 189.5,64C 188.67,65.4651 188.504,66.9651 189,68.5C 189.308,67.6919 189.808,67.0253 190.5,66.5C 193.137,69.1836 193.803,68.8503 192.5,65.5C 193.167,65.1667 193.833,64.8333 194.5,64.5C 196.863,66.083 196.863,67.9164 194.5,70C 197.943,70.2213 198.276,71.2213 195.5,73C 197.108,73.658 198.275,73.158 199,71.5C 201.755,72.0685 204.255,71.2351 206.5,69C 203.833,69.3333 201.167,69.6667 198.5,70C 200.679,69.5581 201.345,68.5581 200.5,67C 202.433,66.7489 204.266,66.2489 206,65.5C 206.333,66.1667 206.667,66.8333 207,67.5C 208.213,65.8697 209.046,64.0364 209.5,62C 207.855,60.968 207.522,59.8013 208.5,58.5C 207.253,56.677 206.586,54.677 206.5,52.5C 208.099,52.7678 209.432,52.4345 210.5,51.5C 210.369,50.7611 210.536,50.0944 211,49.5C 211.5,50.6667 212.333,51.5 213.5,52C 211.065,53.0034 211.398,53.5034 214.5,53.5C 215.64,52.0616 218.14,50.7283 222,49.5C 224.333,52.1667 226.667,52.1667 229,49.5C 230.333,52.1667 231.667,52.1667 233,49.5C 235.915,51.2975 238.415,52.6308 240.5,53.5 Z"/></g>
<g><path style="opacity:1" fill="#09365e" d="M 197.5,54.5 C 198.167,54.5 198.833,54.5 199.5,54.5C 199.33,55.8221 199.663,56.9887 200.5,58C 202.085,58.0848 203.418,58.2514 204.5,58.5C 202.022,60.4363 202.022,62.4363 204.5,64.5C 203.418,64.7486 202.085,64.9152 200.5,65C 198.782,69.7457 197.782,69.579 197.5,64.5C 196.5,64.5 195.5,64.5 194.5,64.5C 193.833,64.8333 193.167,65.1667 192.5,65.5C 195.027,62.9671 195.027,60.4671 192.5,58C 195.799,59.3429 197.466,58.1762 197.5,54.5 Z"/></g>
<g><path style="opacity:1" fill="#5595c9" d="M 197.5,58.5 C 200.487,58.9478 201.487,60.4478 200.5,63C 196.707,63.4866 195.707,61.9866 197.5,58.5 Z"/></g>
<g><path style="opacity:1" fill="#0b2643" d="M 23.5,73.5 C 24.5198,75.352 26.0198,76.6853 28,77.5C 30.0191,75.757 32.1857,74.5903 34.5,74C 32.3116,76.1884 30.1449,78.3551 28,80.5C 26.6494,78.9818 25.1494,77.6485 23.5,76.5C 22.5244,75.1851 21.5244,73.8518 20.5,72.5C 20.8333,72.1667 21.1667,71.8333 21.5,71.5C 22.1818,72.2427 22.8485,72.9094 23.5,73.5 Z"/></g>
<g><path style="opacity:1" fill="#344e5f" d="M 331.5,78.5 C 333.018,80.6033 334.685,80.77 336.5,79C 343.826,78.5003 351.159,78.3337 358.5,78.5C 359.404,79.209 359.737,80.209 359.5,81.5C 359.5,81.8333 359.5,82.1667 359.5,82.5C 358.833,82.5 358.167,82.5 357.5,82.5C 357.5,82.1667 357.5,81.8333 357.5,81.5C 350.5,80.1667 343.5,80.1667 336.5,81.5C 335.833,81.8333 335.167,82.1667 334.5,82.5C 334.5,81.8333 334.167,81.5 333.5,81.5C 325.705,80.2179 318.038,80.2179 310.5,81.5C 309.505,93.6554 309.171,105.989 309.5,118.5C 308.505,105.677 308.171,92.6774 308.5,79.5C 315.982,78.508 323.648,78.1746 331.5,78.5 Z"/></g>
<g><path style="opacity:1" fill="#1c4759" d="M 13.5,78.5 C 14.675,78.281 15.675,78.6143 16.5,79.5C 14.9483,80.7979 13.9483,80.4646 13.5,78.5 Z"/></g>
<g><path style="opacity:1" fill="#bcdff0" d="M 357.5,81.5 C 350.401,82.8099 343.401,82.8099 336.5,81.5C 343.5,80.1667 350.5,80.1667 357.5,81.5 Z"/></g>
<g><path style="opacity:1" fill="#e2e4e5" d="M 333.5,81.5 C 333.832,93.5185 333.499,105.518 332.5,117.5C 325.224,116.535 317.891,116.201 310.5,116.5C 310.5,104.833 310.5,93.1667 310.5,81.5C 318.038,80.2179 325.705,80.2179 333.5,81.5 Z"/></g>
<g><path style="opacity:1" fill="#b9e2f6" d="M 168.5,82.5 C 171.016,84.0134 173.683,85.3468 176.5,86.5C 178.571,85.3825 180.738,84.3825 183,83.5C 184.225,83.8623 185.391,84.3623 186.5,85C 203.497,85.4999 220.497,85.6666 237.5,85.5C 240.858,86.5269 242.525,88.8602 242.5,92.5C 242.5,102.5 242.5,112.5 242.5,122.5C 241.057,123.335 240.057,124.668 239.5,126.5C 238.817,126.137 238.15,125.804 237.5,125.5C 238.562,124.425 238.562,123.425 237.5,122.5C 235.929,121.691 234.262,121.357 232.5,121.5C 232.223,118.552 232.556,115.719 233.5,113C 232.646,111.978 231.646,111.145 230.5,110.5C 228.796,112.041 226.963,113.375 225,114.5C 224.228,114.355 223.561,114.022 223,113.5C 218.237,114.394 213.403,115.061 208.5,115.5C 208.5,114.5 208.5,113.5 208.5,112.5C 200.5,113.5 192.5,114.5 184.5,115.5C 184.5,117.5 184.5,119.5 184.5,121.5C 179.778,121.731 175.111,122.398 170.5,123.5C 169.558,123.392 168.725,123.059 168,122.5C 167.667,123.833 167.333,125.167 167,126.5C 166.802,124.618 166.302,122.952 165.5,121.5C 165.768,119.901 165.434,118.568 164.5,117.5C 159.983,116.834 155.317,116.167 150.5,115.5C 156.636,105.393 162.636,95.2259 168.5,85C 163.246,85.2031 163.246,84.3698 168.5,82.5 Z"/></g>
<g><path style="opacity:1" fill="#e2e3e2" d="M 336.5,81.5 C 343.401,82.8099 350.401,82.8099 357.5,81.5C 357.5,81.8333 357.5,82.1667 357.5,82.5C 357.5,93.8333 357.5,105.167 357.5,116.5C 350.109,116.201 342.776,116.535 335.5,117.5C 334.501,105.852 334.168,94.1857 334.5,82.5C 335.167,82.1667 335.833,81.8333 336.5,81.5 Z"/></g>
<g><path style="opacity:1" fill="#112d41" d="M 18.5,84.5 C 17.9473,86.5518 16.9473,86.8852 15.5,85.5C 16.391,84.8902 17.391,84.5569 18.5,84.5 Z"/></g>
<g><path style="opacity:1" fill="#0a2138" d="M 384.5,84.5 C 385.506,84.9377 385.506,85.6043 384.5,86.5C 382.067,86.2144 382.067,85.5477 384.5,84.5 Z"/></g>
<g><path style="opacity:1" fill="#9ed6f1" d="M 317.5,33.5 C 316.152,34.6006 314.652,35.6006 313,36.5C 311.667,34.5 310.333,32.5 309,30.5C 305.599,37.6461 302.432,44.9795 299.5,52.5C 307.045,54.2908 314.711,55.6242 322.5,56.5C 322.833,56.1667 323.167,55.8333 323.5,55.5C 322.5,53.5 321.5,51.5 320.5,49.5C 324.085,47.871 327.752,46.5377 331.5,45.5C 332.167,45.8333 332.833,46.1667 333.5,46.5C 332.41,47.8571 331.076,48.8571 329.5,49.5C 328.735,49.0766 327.902,48.7432 327,48.5C 323.323,49.6531 322.823,51.4864 325.5,54C 325.041,56.8744 323.707,59.2077 321.5,61C 313.191,61.9568 304.858,62.6235 296.5,63C 297.167,64.3333 297.833,65.6667 298.5,67C 304.249,67.1478 309.915,67.8144 315.5,69C 313.5,69.3333 311.5,69.6667 309.5,70C 310.766,70.3095 311.933,70.8095 313,71.5C 313.251,73.433 313.751,75.2663 314.5,77C 320.921,77.1465 326.588,77.6465 331.5,78.5C 323.648,78.1746 315.982,78.508 308.5,79.5C 307.685,80.4293 306.852,81.4293 306,82.5C 305.5,89.4921 305.334,96.4921 305.5,103.5C 302.167,103.5 298.833,103.5 295.5,103.5C 295.5,107.167 295.5,110.833 295.5,114.5C 292.999,113.174 290.332,112.674 287.5,113C 285.984,114.897 285.317,117.064 285.5,119.5C 285.196,120.15 284.863,120.817 284.5,121.5C 287.375,124.54 286.708,126.206 282.5,126.5C 282.5,124.167 282.5,121.833 282.5,119.5C 279.834,119.067 277.168,118.567 274.5,118C 276.134,117.506 277.801,117.34 279.5,117.5C 279.477,115.073 278.977,112.74 278,110.5C 278.5,115.333 276.333,117.5 271.5,117C 272.39,119.307 271.39,120.473 268.5,120.5C 267.604,117.931 265.938,115.931 263.5,114.5C 262.429,116.325 263.096,117.492 265.5,118C 261.848,118.499 258.182,118.665 254.5,118.5C 254.5,114.833 254.5,111.167 254.5,107.5C 271.833,107.167 271.833,106.833 254.5,106.5C 254.5,103.167 254.5,99.8333 254.5,96.5C 263.404,97.5619 269.071,93.8953 271.5,85.5C 276.242,84.886 280.909,84.0526 285.5,83C 291.141,78.575 292.807,73.075 290.5,66.5C 289.519,64.5107 288.519,62.5107 287.5,60.5C 290.273,51.3096 287.273,44.9763 278.5,41.5C 281.792,41.8804 284.125,40.5471 285.5,37.5C 283.955,34.7395 281.955,32.4061 279.5,30.5C 282.809,25.0187 286.143,19.352 289.5,13.5C 290.325,12.6143 291.325,12.281 292.5,12.5C 292.5,16.5 294.5,18.5 298.5,18.5C 298.343,19.8734 298.51,21.2068 299,22.5C 299.914,21.3463 300.747,21.513 301.5,23C 296.138,28.0277 291.138,33.361 286.5,39C 286.763,40.9457 287.763,41.6123 289.5,41C 295.39,36.5617 301.057,31.895 306.5,27C 309.318,26.1605 311.484,26.9938 313,29.5C 313.333,29.1667 313.667,28.8333 314,28.5C 313.667,29.8333 313.333,31.1667 313,32.5C 314.564,32.9121 316.064,33.2454 317.5,33.5 Z"/></g>
<g><path style="opacity:1" fill="#a7dbf5" d="M 384.5,84.5 C 382.067,85.5477 382.067,86.2144 384.5,86.5C 386.093,87.3479 387.26,88.6813 388,90.5C 389.356,89.6198 390.856,89.2865 392.5,89.5C 392.5,91.8333 392.5,94.1667 392.5,96.5C 389.512,96.1547 388.179,97.488 388.5,100.5C 388.616,102.552 389.616,103.885 391.5,104.5C 392.466,106.396 392.799,108.396 392.5,110.5C 390.5,110.5 388.5,110.5 386.5,110.5C 386.567,111.959 386.234,113.292 385.5,114.5C 382.167,114.5 378.833,114.5 375.5,114.5C 383.023,95.8888 378.023,81.8888 360.5,72.5C 359.322,71.0014 357.655,70.0014 355.5,69.5C 356.325,68.6143 357.325,68.281 358.5,68.5C 358.719,67.325 358.386,66.325 357.5,65.5C 356.038,66.4709 354.705,66.1376 353.5,64.5C 348.554,65.6143 343.554,65.781 338.5,65C 337.944,64.6174 337.611,64.1174 337.5,63.5C 344.661,63.3709 351.661,63.3709 358.5,63.5C 360.894,62.7598 362.394,61.0932 363,58.5C 364.444,60.1554 366.278,60.822 368.5,60.5C 368.014,62.8067 368.014,64.9734 368.5,67C 369.931,67.4652 371.097,68.2986 372,69.5C 375.039,65.5077 377.872,65.6743 380.5,70C 377.355,73.8978 378.188,76.3978 383,77.5C 384.107,77.4148 385.107,77.0814 386,76.5C 389.702,80.1887 389.202,82.8554 384.5,84.5 Z"/></g>
<g><path style="opacity:1" fill="#57778f" d="M 375.5,78.5 C 376.586,78.62 377.253,79.2867 377.5,80.5C 377.167,81.1667 376.833,81.8333 376.5,82.5C 375.571,81.3112 375.238,79.9778 375.5,78.5 Z"/></g>
<g><path style="opacity:1" fill="#7dbedf" d="M 76.5,84.5 C 76.4088,86.6977 77.0755,87.0311 78.5,85.5C 80.1457,85.458 81.8123,85.458 83.5,85.5C 84.7472,87.0064 84.7472,88.5064 83.5,90C 85.9119,92.0354 85.2452,93.0354 81.5,93C 83.3956,94.7412 85.3956,96.2412 87.5,97.5C 87.0825,98.2216 86.4158,98.7216 85.5,99C 86.0944,99.4643 86.7611,99.631 87.5,99.5C 87.1667,100.833 86.8333,102.167 86.5,103.5C 87.1834,105.176 88.5168,105.843 90.5,105.5C 91.1239,105.917 91.4573,106.584 91.5,107.5C 91.2528,108.713 90.5862,109.38 89.5,109.5C 84.3402,109.605 84.3402,110.272 89.5,111.5C 88.6586,113.379 88.3253,115.379 88.5,117.5C 86.549,117.227 85.049,117.893 84,119.5C 83.0853,118.672 82.4186,117.672 82,116.5C 81.2828,117.044 80.7828,117.711 80.5,118.5C 80.5,118.833 80.5,119.167 80.5,119.5C 79.5207,120.765 78.5207,122.099 77.5,123.5C 78.5,124.833 79.5,126.167 80.5,127.5C 79.3881,128.265 78.7214,129.265 78.5,130.5C 78.1667,130.5 77.8333,130.5 77.5,130.5C 71.1667,130.5 64.8333,130.5 58.5,130.5C 58.5,129.5 58.5,128.5 58.5,127.5C 65.572,127.849 71.2386,127.516 75.5,126.5C 77.3592,121.777 79.5258,117.11 82,112.5C 85.9755,97.7639 80.4755,89.4306 65.5,87.5C 52.4148,89.6403 47.2482,97.3069 50,110.5C 52.807,115.776 55.307,121.109 57.5,126.5C 56.7611,126.369 56.0944,126.536 55.5,127C 58.1247,128.376 58.1247,129.542 55.5,130.5C 54.0413,130.567 52.7079,130.234 51.5,129.5C 52.4106,126.039 52.7439,122.706 52.5,119.5C 51.7261,118.289 50.8928,118.289 50,119.5C 48.5804,117.578 46.7471,116.245 44.5,115.5C 47.0182,113.844 47.0182,112.511 44.5,111.5C 44.9175,110.778 45.5842,110.278 46.5,110C 46.2716,109.601 45.9382,109.435 45.5,109.5C 45.9175,108.778 46.5842,108.278 47.5,108C 45.3808,107.658 45.0474,106.825 46.5,105.5C 47.8333,103.167 47.8333,100.833 46.5,98.5C 45.609,97.8902 44.609,97.5569 43.5,97.5C 45.46,94.6465 46.2934,91.6465 46,88.5C 48.7832,87.3588 50.9499,85.5255 52.5,83C 53.7494,82.2599 54.7494,82.4265 55.5,83.5C 56.4959,83.4142 57.3292,83.7476 58,84.5C 58.2321,83.2625 58.7321,82.2625 59.5,81.5C 59.369,82.2389 59.5357,82.9056 60,83.5C 60.69,84.7383 61.19,84.7383 61.5,83.5C 62.4959,83.4142 63.3292,83.7476 64,84.5C 64.4935,82.8659 64.6602,81.1992 64.5,79.5C 69.6187,78.7652 73.6187,80.4319 76.5,84.5 Z"/></g>
<g><path style="opacity:1" fill="#3095ce" d="M 419.5,69.5 C 420.904,75.6188 424.404,77.2855 430,74.5C 430.772,74.6448 431.439,74.9781 432,75.5C 433.461,77.8509 432.961,80.0175 430.5,82C 431.698,85.2671 434.032,87.1005 437.5,87.5C 437.5,89.1667 437.5,90.8333 437.5,92.5C 433.706,92.5223 431.372,94.3556 430.5,98C 431.101,99.605 432.101,100.938 433.5,102C 432.5,103 431.5,104 430.5,105C 427.974,104.096 425.308,103.762 422.5,104C 420.996,105.337 419.996,107.004 419.5,109C 417.866,109.494 416.199,109.66 414.5,109.5C 415.011,105.612 413.345,103.279 409.5,102.5C 406.372,106.618 403.706,106.285 401.5,101.5C 402.5,100.167 403.5,98.8333 404.5,97.5C 403.721,93.6553 401.388,91.9887 397.5,92.5C 397.5,90.5 397.5,88.5 397.5,86.5C 399.167,86.5 400.833,86.5 402.5,86.5C 402.383,84.5165 403.05,82.8498 404.5,81.5C 402.545,79.3083 402.212,76.975 403.5,74.5C 404.15,74.1961 404.817,73.8627 405.5,73.5C 406.833,74.5 408.167,75.5 409.5,76.5C 413.345,75.7212 415.011,73.3879 414.5,69.5C 416.167,69.5 417.833,69.5 419.5,69.5 Z"/></g>
<g><path style="opacity:1" fill="#063560" d="M 420.5,84.5 C 422.028,84.5173 422.528,85.184 422,86.5C 420.167,88.3333 418.333,90.1667 416.5,92C 414.799,92.3446 413.466,91.6779 412.5,90C 416.523,90.5206 419.19,88.6872 420.5,84.5 Z"/></g>
<g><path style="opacity:1" fill="#122c3f" d="M 382.5,94.5 C 384.496,93.3122 385.329,93.9789 385,96.5C 384.292,95.6195 383.458,94.9528 382.5,94.5 Z"/></g>
<g><path style="opacity:1" fill="#97d5f1" d="M 7.5,78.5 C 7.69333,82.007 7.02666,85.3404 5.5,88.5C 5.83333,88.8333 6.16667,89.1667 6.5,89.5C 8.55382,87.0744 11.2205,85.7411 14.5,85.5C 15.1079,86.7997 15.7745,88.1331 16.5,89.5C 14.8404,96.3993 14.1737,103.399 14.5,110.5C 14.8493,115.111 14.1826,118.778 12.5,121.5C 11.5,121.5 10.5,121.5 9.5,121.5C 9.5,120.5 9.5,119.5 9.5,118.5C 8.02218,118.762 6.68884,118.429 5.5,117.5C 6.6087,116.035 6.1087,115.035 4,114.5C 3.61742,115.056 3.11742,115.389 2.5,115.5C 0.070537,102.472 1.7372,90.1388 7.5,78.5 Z"/></g>
<g><path style="opacity:1" fill="#6cc0eb" d="M 85.5,126.5 C 83.3556,128.151 81.0222,129.485 78.5,130.5C 78.7214,129.265 79.3881,128.265 80.5,127.5C 79.5,126.167 78.5,124.833 77.5,123.5C 78.5207,122.099 79.5207,120.765 80.5,119.5C 81.0024,121.085 82.0024,121.585 83.5,121C 82.6266,119.955 81.6266,119.122 80.5,118.5C 80.7828,117.711 81.2828,117.044 82,116.5C 82.4186,117.672 83.0853,118.672 84,119.5C 85.049,117.893 86.549,117.227 88.5,117.5C 88.3253,115.379 88.6586,113.379 89.5,111.5C 89.5,110.833 89.5,110.167 89.5,109.5C 90.5862,109.38 91.2528,108.713 91.5,107.5C 91.4573,106.584 91.1239,105.917 90.5,105.5C 89.8166,103.824 88.4832,103.157 86.5,103.5C 86.8333,102.167 87.1667,100.833 87.5,99.5C 90.1667,98.8333 90.1667,98.1667 87.5,97.5C 85.3956,96.2412 83.3956,94.7412 81.5,93C 85.2452,93.0354 85.9119,92.0354 83.5,90C 84.7472,88.5064 84.7472,87.0064 83.5,85.5C 81.8123,85.458 80.1457,85.458 78.5,85.5C 78.5912,83.3023 77.9245,82.9689 76.5,84.5C 73.6187,80.4319 69.6187,78.7652 64.5,79.5C 64.6602,81.1992 64.4935,82.8659 64,84.5C 63.3292,83.7476 62.4959,83.4142 61.5,83.5C 61.5,82.1667 60.8333,81.5 59.5,81.5C 58.7321,82.2625 58.2321,83.2625 58,84.5C 57.3292,83.7476 56.4959,83.4142 55.5,83.5C 54.7494,82.4265 53.7494,82.2599 52.5,83C 50.9499,85.5255 48.7832,87.3588 46,88.5C 46.2934,91.6465 45.46,94.6465 43.5,97.5C 44.0527,99.5518 45.0527,99.8852 46.5,98.5C 47.8333,100.833 47.8333,103.167 46.5,105.5C 45.0474,106.825 45.3808,107.658 47.5,108C 46.5842,108.278 45.9175,108.778 45.5,109.5C 43.5759,109.711 43.2426,110.377 44.5,111.5C 47.0182,112.511 47.0182,113.844 44.5,115.5C 46.7471,116.245 48.5804,117.578 50,119.5C 50.8928,118.289 51.7261,118.289 52.5,119.5C 52.7439,122.706 52.4106,126.039 51.5,129.5C 37.3706,117.979 34.8706,104.312 44,88.5C 55.6781,76.0956 68.8448,74.2622 83.5,83C 97.4474,96.9317 98.114,111.432 85.5,126.5 Z"/></g>
<g><path style="opacity:1" fill="#114e73" d="M 86.5,103.5 C 88.4832,103.157 89.8166,103.824 90.5,105.5C 88.5168,105.843 87.1834,105.176 86.5,103.5 Z"/></g>
<g><path style="opacity:1" fill="#104f75" d="M 46.5,105.5 C 45.0222,105.762 43.6888,105.429 42.5,104.5C 43.1667,104.167 43.8333,103.833 44.5,103.5C 45.7133,103.747 46.38,104.414 46.5,105.5 Z"/></g>
<g><path style="opacity:1" fill="#083058" d="M 87.5,97.5 C 90.1667,98.1667 90.1667,98.8333 87.5,99.5C 86.7611,99.631 86.0944,99.4643 85.5,99C 86.4158,98.7216 87.0825,98.2216 87.5,97.5 Z"/></g>
<g><path style="opacity:1" fill="#052653" d="M 43.5,97.5 C 44.609,97.5569 45.609,97.8902 46.5,98.5C 45.0527,99.8852 44.0527,99.5518 43.5,97.5 Z"/></g>
<g><path style="opacity:1" fill="#042347" d="M 81.5,87.5 C 83.6569,88.0533 83.4903,89.0533 81,90.5C 80.5304,89.4232 80.6971,88.4232 81.5,87.5 Z"/></g>
<g><path style="opacity:1" fill="#f7fbfb" d="M 75.5,126.5 C 73.5168,126.843 72.1834,126.176 71.5,124.5C 73.1528,119.384 73.9862,114.051 74,108.5C 69.6828,108.824 65.3495,109.157 61,109.5C 60.0497,108.978 59.2164,108.311 58.5,107.5C 58.1667,107.833 57.8333,108.167 57.5,108.5C 59.14,114.393 60.14,120.393 60.5,126.5C 59.5,126.5 58.5,126.5 57.5,126.5C 55.307,121.109 52.807,115.776 50,110.5C 47.2482,97.3069 52.4148,89.6403 65.5,87.5C 80.4755,89.4306 85.9755,97.7639 82,112.5C 79.5258,117.11 77.3592,121.777 75.5,126.5 Z"/></g>
<g><path style="opacity:1" fill="#041a4b" d="M 78.5,85.5 C 77.0755,87.0311 76.4088,86.6977 76.5,84.5C 77.9245,82.9689 78.5912,83.3023 78.5,85.5 Z"/></g>
<g><path style="opacity:1" fill="#163962" d="M 55.5,83.5 C 56.4124,84.7382 56.5791,86.0715 56,87.5C 54.3702,86.1821 54.2035,84.8488 55.5,83.5 Z"/></g>
<g><path style="opacity:1" fill="#052a4a" d="M 59.5,81.5 C 60.8333,81.5 61.5,82.1667 61.5,83.5C 61.19,84.7383 60.69,84.7383 60,83.5C 59.5357,82.9056 59.369,82.2389 59.5,81.5 Z"/></g>
<g><path style="opacity:1" fill="#145270" d="M 65.5,80.5 C 66.5862,80.62 67.2528,81.2867 67.5,82.5C 67.1667,83.1667 66.8333,83.8333 66.5,84.5C 65.5713,83.3112 65.238,81.9778 65.5,80.5 Z"/></g>
<g><path style="opacity:1" fill="#022141" d="M 254.5,106.5 C 271.833,106.833 271.833,107.167 254.5,107.5C 249.067,106.813 248.401,107.979 252.5,111C 252.167,111.167 251.833,111.333 251.5,111.5C 246.057,107.713 246.391,104.88 252.5,103C 248.401,106.021 249.067,107.187 254.5,106.5 Z"/></g>
<g><path style="opacity:1" fill="#69bae2" d="M 364.5,44.5 C 365.5,44.5 366.5,44.5 367.5,44.5C 367.167,48.5 366.833,52.5 366.5,56.5C 369.167,56.5 371.833,56.5 374.5,56.5C 374.5,54.1667 374.5,51.8333 374.5,49.5C 374.5,48.8333 374.5,48.1667 374.5,47.5C 378.934,49.5518 383.267,51.8852 387.5,54.5C 388.386,55.325 388.719,56.325 388.5,57.5C 386.481,58.9334 384.314,60.2668 382,61.5C 382.046,59.6874 381.88,58.0207 381.5,56.5C 380.52,59.0865 380.187,61.7531 380.5,64.5C 382.591,64.3184 384.591,64.6518 386.5,65.5C 386.833,65.1667 387.167,64.8333 387.5,64.5C 385.922,63.7022 384.256,63.2022 382.5,63C 385.48,60.676 388.813,59.176 392.5,58.5C 393.457,61.1682 395.457,62.6682 398.5,63C 397.944,63.3826 397.611,63.8826 397.5,64.5C 391.668,63.9785 389.668,66.3118 391.5,71.5C 391.884,73.2926 393.05,74.2926 395,74.5C 397.085,73.8758 398.918,72.8758 400.5,71.5C 402.437,70.8049 403.437,71.8049 403.5,74.5C 402.212,76.975 402.545,79.3083 404.5,81.5C 403.05,82.8498 402.383,84.5165 402.5,86.5C 400.833,86.5 399.167,86.5 397.5,86.5C 397.5,88.5 397.5,90.5 397.5,92.5C 401.388,91.9887 403.721,93.6553 404.5,97.5C 403.5,98.8333 402.5,100.167 401.5,101.5C 403.706,106.285 406.372,106.618 409.5,102.5C 413.345,103.279 415.011,105.612 414.5,109.5C 414.5,110.833 414.5,112.167 414.5,113.5C 414.031,132.009 404.698,146.176 386.5,156C 389.171,155.571 391.838,154.737 394.5,153.5C 390.102,158.548 384.436,161.548 377.5,162.5C 377.167,162.833 376.833,163.167 376.5,163.5C 377.376,164.251 378.376,164.751 379.5,165C 378.058,165.377 377.058,166.21 376.5,167.5C 373.167,167.5 369.833,167.5 366.5,167.5C 360.355,166.51 354.022,166.177 347.5,166.5C 347.179,160.974 347.512,155.64 348.5,150.5C 348.5,155.167 348.5,159.833 348.5,164.5C 354.31,165.49 360.31,165.823 366.5,165.5C 366.821,160.305 366.487,155.305 365.5,150.5C 363.127,149.797 361.127,148.464 359.5,146.5C 358.596,147.209 358.263,148.209 358.5,149.5C 355.15,149.665 351.817,149.498 348.5,149C 349.823,146.697 351.823,144.53 354.5,142.5C 354.5,140.833 354.5,139.167 354.5,137.5C 356.527,137.338 358.527,137.505 360.5,138C 361.617,139.892 363.284,140.725 365.5,140.5C 365.328,141.492 365.662,142.158 366.5,142.5C 377.167,142.5 387.833,142.5 398.5,142.5C 398.5,135.5 398.5,128.5 398.5,121.5C 399.468,119.393 399.802,117.059 399.5,114.5C 397.5,114.5 395.5,114.5 393.5,114.5C 392.833,119.833 392.167,119.833 391.5,114.5C 389.5,114.5 387.5,114.5 385.5,114.5C 386.234,113.292 386.567,111.959 386.5,110.5C 388.5,110.5 390.5,110.5 392.5,110.5C 392.799,108.396 392.466,106.396 391.5,104.5C 389.616,103.885 388.616,102.552 388.5,100.5C 388.179,97.488 389.512,96.1547 392.5,96.5C 392.5,94.1667 392.5,91.8333 392.5,89.5C 390.856,89.2865 389.356,89.6198 388,90.5C 387.26,88.6813 386.093,87.3479 384.5,86.5C 385.506,85.6043 385.506,84.9377 384.5,84.5C 389.202,82.8554 389.702,80.1887 386,76.5C 385.107,77.0814 384.107,77.4148 383,77.5C 378.188,76.3978 377.355,73.8978 380.5,70C 377.872,65.6743 375.039,65.5077 372,69.5C 371.097,68.2986 369.931,67.4652 368.5,67C 368.014,64.9734 368.014,62.8067 368.5,60.5C 366.278,60.822 364.444,60.1554 363,58.5C 362.394,61.0932 360.894,62.7598 358.5,63.5C 351.661,63.3709 344.661,63.3709 337.5,63.5C 343.084,61.7048 349.084,60.8715 355.5,61C 354.944,60.6174 354.611,60.1174 354.5,59.5C 355.833,58.8333 355.833,58.1667 354.5,57.5C 354.082,56.7784 353.416,56.2784 352.5,56C 348.833,55.6667 345.167,55.3333 341.5,55C 340.328,54.5814 339.328,53.9147 338.5,53C 344.016,52.8267 349.349,52.3267 354.5,51.5C 355.338,51.1583 355.672,50.4916 355.5,49.5C 355.5,48.8333 355.5,48.1667 355.5,47.5C 357.845,44.925 360.845,43.925 364.5,44.5 Z"/></g>
<g><path style="opacity:1" fill="#012f52" d="M 45.5,109.5 C 45.9382,109.435 46.2716,109.601 46.5,110C 45.5842,110.278 44.9175,110.778 44.5,111.5C 43.2426,110.377 43.5759,109.711 45.5,109.5 Z"/></g>
<g><path style="opacity:1" fill="#0c3f64" d="M 89.5,109.5 C 89.5,110.167 89.5,110.833 89.5,111.5C 84.3402,110.272 84.3402,109.605 89.5,109.5 Z"/></g>
<g><path style="opacity:1" fill="#c7f6fc" d="M 394.5,153.5 C 391.838,154.737 389.171,155.571 386.5,156C 404.698,146.176 414.031,132.009 414.5,113.5C 417.009,111.188 419.009,111.855 420.5,115.5C 419.645,116.293 418.811,115.96 418,114.5C 415.261,130.657 407.428,143.657 394.5,153.5 Z"/></g>
<g><path style="opacity:1" fill="#272728" d="M 71.5,124.5 C 71.1667,124.5 70.8333,124.5 70.5,124.5C 71.1848,119.907 72.1848,115.407 73.5,111C 68.798,110.172 64.1313,110.338 59.5,111.5C 60.7562,116.114 61.7562,120.781 62.5,125.5C 61.8333,125.833 61.1667,126.167 60.5,126.5C 60.14,120.393 59.14,114.393 57.5,108.5C 57.8333,108.167 58.1667,107.833 58.5,107.5C 59.2164,108.311 60.0497,108.978 61,109.5C 65.3495,109.157 69.6828,108.824 74,108.5C 73.9862,114.051 73.1528,119.384 71.5,124.5 Z"/></g>
<g><path style="opacity:1" fill="#aadaf2" d="M 237.5,125.5 C 230.852,128.085 227.352,125.752 227,118.5C 226.51,119.793 226.343,121.127 226.5,122.5C 220.797,124.203 214.964,125.536 209,126.5C 207.701,125.02 206.034,124.354 204,124.5C 199.736,126.148 195.403,127.481 191,128.5C 189.187,127.391 188.354,128.058 188.5,130.5C 181.601,129.013 178.268,131.679 178.5,138.5C 174.884,139.524 171.384,140.857 168,142.5C 165.719,135.721 164.886,128.721 165.5,121.5C 166.302,122.952 166.802,124.618 167,126.5C 167.333,125.167 167.667,123.833 168,122.5C 168.725,123.059 169.558,123.392 170.5,123.5C 175.111,122.398 179.778,121.731 184.5,121.5C 184.5,119.5 184.5,117.5 184.5,115.5C 192.5,114.5 200.5,113.5 208.5,112.5C 208.5,113.5 208.5,114.5 208.5,115.5C 213.403,115.061 218.237,114.394 223,113.5C 223.561,114.022 224.228,114.355 225,114.5C 226.963,113.375 228.796,112.041 230.5,110.5C 231.646,111.145 232.646,111.978 233.5,113C 232.556,115.719 232.223,118.552 232.5,121.5C 234.262,121.357 235.929,121.691 237.5,122.5C 238.562,123.425 238.562,124.425 237.5,125.5 Z"/></g>
<g><path style="opacity:1" fill="#082c52" d="M 83.5,115.5 C 84.7211,114.535 86.0544,114.702 87.5,116C 86.0715,116.579 84.7382,116.412 83.5,115.5 Z"/></g>
<g><path style="opacity:1" fill="#f4fcfc" d="M 375.5,114.5 C 378.833,114.5 382.167,114.5 385.5,114.5C 387.5,114.5 389.5,114.5 391.5,114.5C 392.167,119.833 392.833,119.833 393.5,114.5C 395.5,114.5 397.5,114.5 399.5,114.5C 399.802,117.059 399.468,119.393 398.5,121.5C 398.167,121.5 397.833,121.5 397.5,121.5C 387.5,121.5 377.5,121.5 367.5,121.5C 366.833,121.5 366.167,121.5 365.5,121.5C 365.5,119.167 365.5,116.833 365.5,114.5C 367.5,114.5 369.5,114.5 371.5,114.5C 371.833,119.833 372.167,119.833 372.5,114.5C 373.5,114.5 374.5,114.5 375.5,114.5 Z"/></g>
<g><path style="opacity:1" fill="#323334" d="M 310.5,81.5 C 310.5,93.1667 310.5,104.833 310.5,116.5C 317.891,116.201 325.224,116.535 332.5,117.5C 333.499,105.518 333.832,93.5185 333.5,81.5C 334.167,81.5 334.5,81.8333 334.5,82.5C 334.168,94.1857 334.501,105.852 335.5,117.5C 342.776,116.535 350.109,116.201 357.5,116.5C 357.5,105.167 357.5,93.8333 357.5,82.5C 358.167,82.5 358.833,82.5 359.5,82.5C 359.5,94.5 359.5,106.5 359.5,118.5C 351.826,118.334 344.159,118.5 336.5,119C 335.944,119.383 335.611,119.883 335.5,120.5C 334.833,120.833 334.167,121.167 333.5,121.5C 333.586,120.504 333.252,119.671 332.5,119C 324.841,118.5 317.174,118.334 309.5,118.5C 309.171,105.989 309.505,93.6554 310.5,81.5 Z"/></g>
<g><path style="opacity:1" fill="#383839" d="M 313.5,94.5 C 318.875,94.1718 324.208,94.5052 329.5,95.5C 326.833,95.8333 324.167,96.1667 321.5,96.5C 318.41,96.4783 315.743,95.8117 313.5,94.5 Z"/></g>
<g><path style="opacity:1" fill="#585959" d="M 337.5,94.5 C 342.875,94.1718 348.208,94.5052 353.5,95.5C 350.833,95.8333 348.167,96.1667 345.5,96.5C 342.41,96.4783 339.743,95.8117 337.5,94.5 Z"/></g>
<g><path style="opacity:1" fill="#3e3e3f" d="M 337.5,89.5 C 342.875,89.1718 348.208,89.5052 353.5,90.5C 350.833,90.8333 348.167,91.1667 345.5,91.5C 342.41,91.4783 339.743,90.8117 337.5,89.5 Z"/></g>
<g><path style="opacity:1" fill="#3f3d3f" d="M 313.5,89.5 C 318.875,89.1718 324.208,89.5052 329.5,90.5C 326.833,90.8333 324.167,91.1667 321.5,91.5C 318.41,91.4783 315.743,90.8117 313.5,89.5 Z"/></g>
<g><path style="opacity:1" fill="#515155" d="M 313.5,84.5 C 316.898,84.1796 320.232,84.513 323.5,85.5C 321.833,85.8333 320.167,86.1667 318.5,86.5C 316.36,86.4439 314.694,85.7773 313.5,84.5 Z"/></g>
<g><path style="opacity:1" fill="#f3fefe" d="M 359.5,81.5 C 361.481,94.4581 362.148,107.791 361.5,121.5C 352.651,121.826 343.984,121.493 335.5,120.5C 335.611,119.883 335.944,119.383 336.5,119C 344.159,118.5 351.826,118.334 359.5,118.5C 359.5,106.5 359.5,94.5 359.5,82.5C 359.5,82.1667 359.5,81.8333 359.5,81.5 Z"/></g>
<g><path style="opacity:1" fill="#f6fafa" d="M 70.5,124.5 C 69.6661,125.748 68.3328,126.415 66.5,126.5C 64.9549,126.489 63.6216,126.156 62.5,125.5C 61.7562,120.781 60.7562,116.114 59.5,111.5C 64.1313,110.338 68.798,110.172 73.5,111C 72.1848,115.407 71.1848,119.907 70.5,124.5 Z"/></g>
<g><path style="opacity:1" fill="#023050" d="M 80.5,118.5 C 81.6266,119.122 82.6266,119.955 83.5,121C 82.0024,121.585 81.0024,121.085 80.5,119.5C 80.5,119.167 80.5,118.833 80.5,118.5 Z"/></g>
<g><path style="opacity:1" fill="#9dd6f0" d="M 164.5,117.5 C 165.434,118.568 165.768,119.901 165.5,121.5C 164.886,128.721 165.719,135.721 168,142.5C 171.384,140.857 174.884,139.524 178.5,138.5C 178.268,131.679 181.601,129.013 188.5,130.5C 188.354,128.058 189.187,127.391 191,128.5C 195.403,127.481 199.736,126.148 204,124.5C 206.034,124.354 207.701,125.02 209,126.5C 214.964,125.536 220.797,124.203 226.5,122.5C 226.343,121.127 226.51,119.793 227,118.5C 227.352,125.752 230.852,128.085 237.5,125.5C 238.15,125.804 238.817,126.137 239.5,126.5C 240.057,124.668 241.057,123.335 242.5,122.5C 242.5,126.5 242.5,130.5 242.5,134.5C 241.732,135.263 241.232,136.263 241,137.5C 239.951,135.893 238.451,135.227 236.5,135.5C 236.5,136.5 236.5,137.5 236.5,138.5C 234.508,138.672 232.842,138.005 231.5,136.5C 225.953,136.951 220.286,137.618 214.5,138.5C 214.719,139.675 214.386,140.675 213.5,141.5C 211.929,140.691 210.262,140.357 208.5,140.5C 208.5,142.167 208.5,143.833 208.5,145.5C 204.129,144.534 201.129,146.034 199.5,150C 198.552,150.483 197.552,150.649 196.5,150.5C 196.646,152.942 195.813,153.609 194,152.5C 192.599,154.192 190.766,154.859 188.5,154.5C 188.5,153.167 188.5,151.833 188.5,150.5C 183.657,149.843 180.49,151.843 179,156.5C 176.858,152.326 174.024,151.659 170.5,154.5C 168.9,151.06 167.067,147.726 165,144.5C 164.5,135.506 164.334,126.506 164.5,117.5 Z"/></g>
<g><path style="opacity:1" fill="#234258" d="M 268.5,120.5 C 266.852,121.81 265.186,123.143 263.5,124.5C 263.167,124.333 262.833,124.167 262.5,124C 263.5,123 264.5,122 265.5,121C 261.848,120.501 258.182,120.335 254.5,120.5C 254.167,120.5 253.833,120.5 253.5,120.5C 251.396,120.799 249.396,120.466 247.5,119.5C 249.743,118.526 252.076,118.192 254.5,118.5C 258.182,118.665 261.848,118.499 265.5,118C 263.096,117.492 262.429,116.325 263.5,114.5C 265.938,115.931 267.604,117.931 268.5,120.5 Z"/></g>
<g><path style="opacity:1" fill="#edfafd" d="M 308.5,79.5 C 308.171,92.6774 308.505,105.677 309.5,118.5C 317.174,118.334 324.841,118.5 332.5,119C 333.252,119.671 333.586,120.504 333.5,121.5C 324.5,121.5 315.5,121.5 306.5,121.5C 305.51,115.69 305.177,109.69 305.5,103.5C 305.334,96.4921 305.5,89.4921 306,82.5C 306.852,81.4293 307.685,80.4293 308.5,79.5 Z"/></g>
<g><path style="opacity:1" fill="#86caec" d="M 124.5,50.5 C 125.095,53.1125 125.929,53.1125 127,50.5C 128.512,52.9574 129.846,52.9574 131,50.5C 131.388,51.428 132.055,52.0946 133,52.5C 136.963,51.8948 140.796,52.7281 144.5,55C 152.558,63.3827 154.724,73.2161 151,84.5C 148.093,88.6588 144.593,91.9921 140.5,94.5C 138.045,93.303 135.712,93.6363 133.5,95.5C 134.025,96.1924 134.692,96.6924 135.5,97C 135,97.1667 134.5,97.3333 134,97.5C 131.744,95.9145 129.244,95.2479 126.5,95.5C 126.297,97.3904 126.963,98.8904 128.5,100C 128.272,100.399 127.938,100.565 127.5,100.5C 125.801,100.34 124.134,100.506 122.5,101C 121.483,102.049 121.316,103.216 122,104.5C 122.879,101.654 124.546,100.987 127,102.5C 127.667,103.5 127.667,104.5 127,105.5C 124.551,106.906 123.551,108.906 124,111.5C 124.399,111.272 124.565,110.938 124.5,110.5C 126.044,110.297 127.378,109.63 128.5,108.5C 129.736,109.246 131.07,109.579 132.5,109.5C 132.5,107.833 132.5,106.167 132.5,104.5C 135.596,103.907 137.929,104.907 139.5,107.5C 140.736,106.754 142.07,106.421 143.5,106.5C 142.848,102.44 144.515,100.44 148.5,100.5C 152.684,101.738 154.018,100.238 152.5,96C 152.759,94.7387 153.426,93.7387 154.5,93C 160.649,93.3188 161.982,90.6521 158.5,85C 159.617,83.1079 161.284,82.2746 163.5,82.5C 163.286,80.8561 163.62,79.3561 164.5,78C 163.437,76.8118 162.103,76.3118 160.5,76.5C 160.5,74.8333 160.5,73.1667 160.5,71.5C 164.068,71.2407 165.401,69.2407 164.5,65.5C 162.833,65.5 161.167,65.5 159.5,65.5C 159.481,63.9397 159.148,62.4397 158.5,61C 159.272,59.779 160.272,58.779 161.5,58C 160.382,56.9264 159.382,55.7598 158.5,54.5C 156.414,56.0234 154.748,55.69 153.5,53.5C 154.628,52.7379 155.795,52.0712 157,51.5C 160.667,52.8333 164.333,52.8333 168,51.5C 169.785,52.2401 171.618,52.9067 173.5,53.5C 173.833,54.1667 174.167,54.8333 174.5,55.5C 172.092,64.4873 170.092,73.4873 168.5,82.5C 163.246,84.3698 163.246,85.2031 168.5,85C 162.636,95.2259 156.636,105.393 150.5,115.5C 155.317,116.167 159.983,116.834 164.5,117.5C 164.334,126.506 164.5,135.506 165,144.5C 167.067,147.726 168.9,151.06 170.5,154.5C 174.024,151.659 176.858,152.326 179,156.5C 180.49,151.843 183.657,149.843 188.5,150.5C 188.5,151.833 188.5,153.167 188.5,154.5C 190.766,154.859 192.599,154.192 194,152.5C 195.813,153.609 196.646,152.942 196.5,150.5C 197.552,150.649 198.552,150.483 199.5,150C 201.129,146.034 204.129,144.534 208.5,145.5C 208.5,143.833 208.5,142.167 208.5,140.5C 210.262,140.357 211.929,140.691 213.5,141.5C 214.386,140.675 214.719,139.675 214.5,138.5C 220.286,137.618 225.953,136.951 231.5,136.5C 232.842,138.005 234.508,138.672 236.5,138.5C 236.5,137.5 236.5,136.5 236.5,135.5C 238.451,135.227 239.951,135.893 241,137.5C 241.232,136.263 241.732,135.263 242.5,134.5C 242.5,145.5 242.5,156.5 242.5,167.5C 215.833,167.5 189.167,167.5 162.5,167.5C 163.968,166.221 164.635,164.554 164.5,162.5C 161.833,162.167 159.167,161.833 156.5,161.5C 156.5,160.5 156.5,159.5 156.5,158.5C 155.167,158.5 153.833,158.5 152.5,158.5C 152.5,154.5 152.5,150.5 152.5,146.5C 149.833,146.5 147.167,146.5 144.5,146.5C 143.861,144.24 142.694,142.24 141,140.5C 136.938,143.687 134.438,142.687 133.5,137.5C 133.624,136.893 133.957,136.56 134.5,136.5C 135.657,138.138 136.824,139.804 138,141.5C 143.758,135.994 146.091,129.327 145,121.5C 140.924,117.966 136.591,117.633 132,120.5C 131.077,122.034 130.577,123.701 130.5,125.5C 131.5,128.834 132.5,132.168 133.5,135.5C 129.132,132.726 127.465,128.726 128.5,123.5C 127.5,123.5 126.5,123.5 125.5,123.5C 124.898,127.364 123.732,131.031 122,134.5C 120.807,136.605 119.14,138.272 117,139.5C 116.517,140.448 116.351,141.448 116.5,142.5C 115.325,142.281 114.325,142.614 113.5,143.5C 112.802,145.037 112.469,146.37 112.5,147.5C 112.167,147.5 111.833,147.5 111.5,147.5C 110.504,147.414 109.671,147.748 109,148.5C 108.768,147.263 108.268,146.263 107.5,145.5C 106.833,145.5 106.167,145.5 105.5,145.5C 104.849,146.091 104.182,146.757 103.5,147.5C 102.313,146.347 101.313,146.347 100.5,147.5C 100.5,148.167 100.5,148.833 100.5,149.5C 99.7784,149.082 99.2784,148.416 99,147.5C 98.7978,149.256 98.2978,150.922 97.5,152.5C 94.7852,150.736 91.7852,149.736 88.5,149.5C 93.7895,146.151 98.7895,142.317 103.5,138C 104.57,134.131 106.904,132.965 110.5,134.5C 111.452,132.955 111.785,131.288 111.5,129.5C 113.5,129.5 115.5,129.5 117.5,129.5C 119.354,124.532 117.688,121.865 112.5,121.5C 112.184,117.475 112.017,113.475 112,109.5C 112.833,112.5 113.667,115.5 114.5,118.5C 115.645,113.272 116.978,108.105 118.5,103C 117.836,99.837 116.503,97.0037 114.5,94.5C 114.709,93.914 115.043,93.414 115.5,93C 113.865,92.4604 112.532,92.9604 111.5,94.5C 110.208,91.3807 108.708,88.3807 107,85.5C 106.67,82.5113 105.836,79.678 104.5,77C 104.903,75.5272 105.57,74.1939 106.5,73C 105.966,69.6024 105.966,66.1024 106.5,62.5C 107.5,62.5 108.5,62.5 109.5,62.5C 109.528,64.5824 108.861,66.4157 107.5,68C 108.143,72.7838 108.809,77.6171 109.5,82.5C 111.626,87.6382 113.293,87.3049 114.5,81.5C 116.39,81.2965 117.89,81.9632 119,83.5C 117.511,87.3314 118.844,89.6647 123,90.5C 124.12,88.9252 125.62,87.9252 127.5,87.5C 129.529,88.5512 131.363,89.8845 133,91.5C 133.873,91.2645 134.707,90.9312 135.5,90.5C 136.072,88.0829 137.072,85.9162 138.5,84C 139.899,83.4054 141.232,83.5721 142.5,84.5C 143.919,83.9953 144.585,82.9953 144.5,81.5C 145.097,81.2648 145.43,80.7648 145.5,80C 141.335,76.8481 141.502,74.0148 146,71.5C 147.141,67.0332 145.641,65.3665 141.5,66.5C 140.482,65.8075 139.482,65.1408 138.5,64.5C 140.36,60.5498 139.193,57.8832 135,56.5C 134,57.8333 133,59.1667 132,60.5C 129.097,59.9314 127.097,58.2648 126,55.5C 124.667,56.1667 123.333,56.8333 122,57.5C 121.907,60.0075 121.074,62.1741 119.5,64C 118.423,64.4696 117.423,64.3029 116.5,63.5C 120.614,62.6098 121.281,60.6098 118.5,57.5C 119.59,56.3914 119.59,55.3914 118.5,54.5C 117.476,55.8532 116.143,56.5198 114.5,56.5C 114.5,57.8333 114.5,59.1667 114.5,60.5C 113.07,60.4208 111.736,60.7542 110.5,61.5C 109.738,60.3717 109.071,59.2051 108.5,58C 111.632,56.2014 114.132,53.7014 116,50.5C 116.667,51.8333 117.333,51.8333 118,50.5C 118.112,47.5529 119.612,46.2196 122.5,46.5C 122.157,48.4832 122.824,49.8166 124.5,50.5 Z"/></g>
<g><path style="opacity:1" fill="#04203c" d="M 127.5,100.5 C 128.511,102.402 128.678,104.402 128,106.5C 126.624,107.705 125.458,109.038 124.5,110.5C 124.565,110.938 124.399,111.272 124,111.5C 123.551,108.906 124.551,106.906 127,105.5C 127.667,104.5 127.667,103.5 127,102.5C 124.546,100.987 122.879,101.654 122,104.5C 121.316,103.216 121.483,102.049 122.5,101C 124.134,100.506 125.801,100.34 127.5,100.5 Z"/></g>
<g><path style="opacity:1" fill="#a0d7f3" d="M 140.5,94.5 C 144.263,95.0474 146.93,97.0474 148.5,100.5C 144.515,100.44 142.848,102.44 143.5,106.5C 142.07,106.421 140.736,106.754 139.5,107.5C 137.929,104.907 135.596,103.907 132.5,104.5C 132.5,106.167 132.5,107.833 132.5,109.5C 131.07,109.579 129.736,109.246 128.5,108.5C 127.378,109.63 126.044,110.297 124.5,110.5C 125.458,109.038 126.624,107.705 128,106.5C 128.678,104.402 128.511,102.402 127.5,100.5C 127.938,100.565 128.272,100.399 128.5,100C 126.963,98.8904 126.297,97.3904 126.5,95.5C 129.244,95.2479 131.744,95.9145 134,97.5C 134.5,97.3333 135,97.1667 135.5,97C 134.692,96.6924 134.025,96.1924 133.5,95.5C 135.712,93.6363 138.045,93.303 140.5,94.5 Z"/></g>
<g><path style="opacity:1" fill="#0b2843" d="M 114.5,75.5 C 113.334,77.166 113.334,78.8327 114.5,80.5C 115.891,79.3554 117.224,79.3554 118.5,80.5C 119.313,81.8139 120.313,82.9805 121.5,84C 120.061,86.305 120.561,88.1384 123,89.5C 124.288,85.147 126.788,84.3137 130.5,87C 131.736,90.9746 133.403,91.308 135.5,88C 135.265,87.1268 134.931,86.2935 134.5,85.5C 135.981,84.5197 137.315,83.353 138.5,82C 140.54,82.6145 142.54,82.4478 144.5,81.5C 144.585,82.9953 143.919,83.9953 142.5,84.5C 141.232,83.5721 139.899,83.4054 138.5,84C 137.072,85.9162 136.072,88.0829 135.5,90.5C 134.707,90.9312 133.873,91.2645 133,91.5C 131.363,89.8845 129.529,88.5512 127.5,87.5C 125.62,87.9252 124.12,88.9252 123,90.5C 118.844,89.6647 117.511,87.3314 119,83.5C 117.89,81.9632 116.39,81.2965 114.5,81.5C 112.386,80.216 111.386,78.216 111.5,75.5C 112.5,75.5 113.5,75.5 114.5,75.5 Z"/></g>
<g><path style="opacity:1" fill="#0a2342" d="M 138.5,64.5 C 139.482,65.1408 140.482,65.8075 141.5,66.5C 145.641,65.3665 147.141,67.0332 146,71.5C 141.502,74.0148 141.335,76.8481 145.5,80C 145.43,80.7648 145.097,81.2648 144.5,81.5C 140.179,77.258 140.513,73.4247 145.5,70C 144.003,68.1294 142.003,67.1294 139.5,67C 138.748,66.3292 138.414,65.4959 138.5,64.5 Z"/></g>
<g><path style="opacity:1" fill="#88c9e7" d="M 138.5,64.5 C 138.414,65.4959 138.748,66.3292 139.5,67C 142.003,67.1294 144.003,68.1294 145.5,70C 140.513,73.4247 140.179,77.258 144.5,81.5C 142.54,82.4478 140.54,82.6145 138.5,82C 137.315,83.353 135.981,84.5197 134.5,85.5C 134.931,86.2935 135.265,87.1268 135.5,88C 133.403,91.308 131.736,90.9746 130.5,87C 126.788,84.3137 124.288,85.147 123,89.5C 120.561,88.1384 120.061,86.305 121.5,84C 120.313,82.9805 119.313,81.8139 118.5,80.5C 117.224,79.3554 115.891,79.3554 114.5,80.5C 113.334,78.8327 113.334,77.166 114.5,75.5C 115.693,75.0296 116.36,74.0296 116.5,72.5C 115.345,69.9885 114.678,67.3219 114.5,64.5C 117.913,66.2717 120.746,65.6051 123,62.5C 123.684,61.2161 123.517,60.0495 122.5,59C 124.987,56.6437 126.653,57.1437 127.5,60.5C 130.83,62.1719 133.497,61.5052 135.5,58.5C 136.167,58.8333 136.833,59.1667 137.5,59.5C 137.595,61.2145 137.928,62.8812 138.5,64.5 Z"/></g>
<g><path style="opacity:1" fill="#0a2948" d="M 126.5,67.5 C 132.17,67.3392 135.003,70.0058 135,75.5C 133.309,79.2127 130.475,80.3794 126.5,79C 133.465,78.7315 135.131,75.7315 131.5,70C 126.288,68.8719 123.788,71.0386 124,76.5C 122.927,72.9003 123.76,69.9003 126.5,67.5 Z"/></g>
<g><path style="opacity:1" fill="#112446" d="M 114.5,64.5 C 114.678,67.3219 115.345,69.9885 116.5,72.5C 116.36,74.0296 115.693,75.0296 114.5,75.5C 114.982,74.5837 115.315,73.5837 115.5,72.5C 114.723,70.5534 113.723,68.7201 112.5,67C 112.639,65.699 113.305,64.8656 114.5,64.5 Z"/></g>
<g><path style="opacity:1" fill="#0b2742" d="M 138.5,64.5 C 137.928,62.8812 137.595,61.2145 137.5,59.5C 136.833,59.1667 136.167,58.8333 135.5,58.5C 133.497,61.5052 130.83,62.1719 127.5,60.5C 126.653,57.1437 124.987,56.6437 122.5,59C 123.517,60.0495 123.684,61.2161 123,62.5C 120.746,65.6051 117.913,66.2717 114.5,64.5C 114.842,63.6618 115.508,63.3284 116.5,63.5C 117.423,64.3029 118.423,64.4696 119.5,64C 121.074,62.1741 121.907,60.0075 122,57.5C 123.333,56.8333 124.667,56.1667 126,55.5C 127.097,58.2648 129.097,59.9314 132,60.5C 133,59.1667 134,57.8333 135,56.5C 139.193,57.8832 140.36,60.5498 138.5,64.5 Z"/></g>
<g><path style="opacity:1" fill="#acd9ee" d="M 367.5,121.5 C 377.5,121.5 387.5,121.5 397.5,121.5C 397.5,121.833 397.5,122.167 397.5,122.5C 393.833,122.5 390.167,122.5 386.5,122.5C 382.555,121.573 379.888,122.906 378.5,126.5C 379.456,128.7 378.79,129.033 376.5,127.5C 373.77,128.991 373.937,130.325 377,131.5C 377.718,130.549 378.551,130.383 379.5,131C 378.667,131.833 377.833,132.667 377,133.5C 376.107,132.289 375.274,132.289 374.5,133.5C 375.025,134.192 375.692,134.692 376.5,135C 375.244,135.417 374.577,136.25 374.5,137.5C 373.691,136.531 372.691,135.698 371.5,135C 372.308,134.692 372.975,134.192 373.5,133.5C 371.955,132.548 370.288,132.215 368.5,132.5C 368.806,135.385 368.473,138.052 367.5,140.5C 367.5,134.167 367.5,127.833 367.5,121.5 Z"/></g>
<g><path style="opacity:1" fill="#7ecaee" d="M 14.5,110.5 C 15.8898,118.169 18.3898,125.502 22,132.5C 25.7274,135.724 28.8941,139.391 31.5,143.5C 33.0709,144.309 34.7376,144.643 36.5,144.5C 33.1766,145.362 29.6766,146.028 26,146.5C 24.6244,146.684 23.7911,147.351 23.5,148.5C 22.5416,148.047 21.7083,147.381 21,146.5C 20.6924,147.308 20.1924,147.975 19.5,148.5C 10.6704,139.095 5.00377,128.095 2.5,115.5C 3.11742,115.389 3.61742,115.056 4,114.5C 6.1087,115.035 6.6087,116.035 5.5,117.5C 6.68884,118.429 8.02218,118.762 9.5,118.5C 9.5,119.5 9.5,120.5 9.5,121.5C 10.5,121.5 11.5,121.5 12.5,121.5C 14.1826,118.778 14.8493,115.111 14.5,110.5 Z"/></g>
<g><path style="opacity:1" fill="#2b4f65" d="M 371.5,125.5 C 373.337,125.639 373.67,126.306 372.5,127.5C 371.702,127.043 371.369,126.376 371.5,125.5 Z"/></g>
<g><path style="opacity:1" fill="#398fc0" d="M 85.5,126.5 C 86.7498,126.577 87.5831,127.244 88,128.5C 88.2895,130.952 88.9562,133.285 90,135.5C 91.1127,134.695 92.2794,134.028 93.5,133.5C 94.4778,133.811 95.1445,134.478 95.5,135.5C 92.9553,139.963 90.122,140.296 87,136.5C 85.8455,137.743 84.5122,138.743 83,139.5C 83.4087,141.225 83.2421,142.892 82.5,144.5C 81.5832,145.127 80.5832,145.461 79.5,145.5C 77.8916,146.538 76.8916,145.871 76.5,143.5C 71.8682,141.289 69.5349,142.622 69.5,147.5C 67.1667,147.5 64.8333,147.5 62.5,147.5C 62.5,145.833 62.5,144.167 62.5,142.5C 60.3881,141.725 58.3881,141.725 56.5,142.5C 56.6747,140.379 56.3414,138.379 55.5,136.5C 62.8409,136.666 70.1742,136.5 77.5,136C 71.1754,135.5 64.8421,135.334 58.5,135.5C 58.5,134.5 58.5,133.5 58.5,132.5C 65.2547,133.123 71.588,132.456 77.5,130.5C 77.8333,130.5 78.1667,130.5 78.5,130.5C 81.0222,129.485 83.3556,128.151 85.5,126.5 Z"/></g>
<g><path style="opacity:1" fill="#2f4e63" d="M 376.5,127.5 C 374.663,127.361 374.33,126.694 375.5,125.5C 376.298,125.957 376.631,126.624 376.5,127.5 Z"/></g>
<g><path style="opacity:1" fill="#78c5eb" d="M 133.5,135.5 C 134.167,135.5 134.5,135.833 134.5,136.5C 133.957,136.56 133.624,136.893 133.5,137.5C 134.438,142.687 136.938,143.687 141,140.5C 142.694,142.24 143.861,144.24 144.5,146.5C 147.167,146.5 149.833,146.5 152.5,146.5C 152.5,150.5 152.5,154.5 152.5,158.5C 153.833,158.5 155.167,158.5 156.5,158.5C 156.5,159.5 156.5,160.5 156.5,161.5C 159.167,161.833 161.833,162.167 164.5,162.5C 164.635,164.554 163.968,166.221 162.5,167.5C 133.167,167.5 103.833,167.5 74.5,167.5C 84.1543,165.343 93.1543,161.51 101.5,156C 102.395,151.607 105.062,149.773 109.5,150.5C 111.5,150.5 112.5,149.5 112.5,147.5C 112.469,146.37 112.802,145.037 113.5,143.5C 114.325,142.614 115.325,142.281 116.5,142.5C 116.351,141.448 116.517,140.448 117,139.5C 119.14,138.272 120.807,136.605 122,134.5C 123.732,131.031 124.898,127.364 125.5,123.5C 126.5,123.5 127.5,123.5 128.5,123.5C 127.465,128.726 129.132,132.726 133.5,135.5 Z"/></g>
<g><path style="opacity:1" fill="#052d48" d="M 70.5,124.5 C 70.8333,124.5 71.1667,124.5 71.5,124.5C 72.1834,126.176 73.5168,126.843 75.5,126.5C 71.2386,127.516 65.572,127.849 58.5,127.5C 58.5,128.5 58.5,129.5 58.5,130.5C 64.8333,130.5 71.1667,130.5 77.5,130.5C 71.588,132.456 65.2547,133.123 58.5,132.5C 58.5,133.5 58.5,134.5 58.5,135.5C 64.8421,135.334 71.1754,135.5 77.5,136C 70.1742,136.5 62.8409,136.666 55.5,136.5C 56.2778,135.844 56.9444,135.011 57.5,134C 56.5705,132.923 55.9038,131.756 55.5,130.5C 58.1247,129.542 58.1247,128.376 55.5,127C 56.0944,126.536 56.7611,126.369 57.5,126.5C 58.5,126.5 59.5,126.5 60.5,126.5C 61.1667,126.167 61.8333,125.833 62.5,125.5C 63.6216,126.156 64.9549,126.489 66.5,126.5C 68.3328,126.415 69.6661,125.748 70.5,124.5 Z"/></g>
<g><path style="opacity:1" fill="#92d3f0" d="M 365.5,121.5 C 365.5,127.833 365.5,134.167 365.5,140.5C 363.284,140.725 361.617,139.892 360.5,138C 358.527,137.505 356.527,137.338 354.5,137.5C 354.5,139.167 354.5,140.833 354.5,142.5C 352.833,142.5 351.167,142.5 349.5,142.5C 349.231,136.333 345.898,133.333 339.5,133.5C 340.531,132.3 341.365,130.966 342,129.5C 347.667,128.167 353.333,128.167 359,129.5C 361.439,126.914 363.605,124.247 365.5,121.5 Z"/></g>
<g><path style="opacity:1" fill="#21414f" d="M 365.5,121.5 C 366.167,121.5 366.833,121.5 367.5,121.5C 367.5,127.833 367.5,134.167 367.5,140.5C 367.5,140.833 367.5,141.167 367.5,141.5C 366.833,141.5 366.5,141.833 366.5,142.5C 365.662,142.158 365.328,141.492 365.5,140.5C 365.5,134.167 365.5,127.833 365.5,121.5 Z"/></g>
<g><path style="opacity:1" fill="#629cc0" d="M 386.5,122.5 C 386.918,123.222 387.584,123.722 388.5,124C 388.167,124.333 387.833,124.667 387.5,125C 390.668,125.582 391.001,126.582 388.5,128C 390.125,128.853 390.458,129.853 389.5,131C 390.437,131.692 391.103,131.525 391.5,130.5C 392.833,130.5 393.5,129.833 393.5,128.5C 390.788,126.215 391.121,125.548 394.5,126.5C 395.994,130.183 394.994,133.016 391.5,135C 394.23,136.232 394.063,137.065 391,137.5C 387.937,138.632 384.937,138.632 382,137.5C 382.063,134.827 382.729,134.827 384,137.5C 385,134.833 386,134.833 387,137.5C 387.772,136.151 388.939,135.318 390.5,135C 388.423,134.808 386.423,134.308 384.5,133.5C 385.193,132.482 385.859,131.482 386.5,130.5C 386.5,129.833 386.5,129.167 386.5,128.5C 385.531,127.691 384.698,126.691 384,125.5C 383.302,126.691 382.469,127.691 381.5,128.5C 381.5,129.167 381.5,129.833 381.5,130.5C 381.721,131.735 382.388,132.735 383.5,133.5C 381.922,134.298 380.256,134.798 378.5,135C 379.308,135.308 379.975,135.808 380.5,136.5C 378.604,137.466 376.604,137.799 374.5,137.5C 374.577,136.25 375.244,135.417 376.5,135C 375.692,134.692 375.025,134.192 374.5,133.5C 375.274,132.289 376.107,132.289 377,133.5C 377.833,132.667 378.667,131.833 379.5,131C 378.551,130.383 377.718,130.549 377,131.5C 373.937,130.325 373.77,128.991 376.5,127.5C 378.79,129.033 379.456,128.7 378.5,126.5C 379.888,122.906 382.555,121.573 386.5,122.5 Z"/></g>
<g><path style="opacity:1" fill="#113f66" d="M 381.5,128.5 C 384.167,129.167 384.167,129.833 381.5,130.5C 381.5,129.833 381.5,129.167 381.5,128.5 Z"/></g>
<g><path style="opacity:1" fill="#f2fcfc" d="M 134.5,136.5 C 134.5,135.833 134.167,135.5 133.5,135.5C 132.5,132.168 131.5,128.834 130.5,125.5C 130.577,123.701 131.077,122.034 132,120.5C 136.591,117.633 140.924,117.966 145,121.5C 146.091,129.327 143.758,135.994 138,141.5C 136.824,139.804 135.657,138.138 134.5,136.5 Z"/></g>
<g><path style="opacity:1" fill="#3d7d9a" d="M 136.5,124.5 C 139.166,124.066 140.333,125.066 140,127.5C 136.403,129.066 135.237,128.066 136.5,124.5 Z"/></g>
<g><path style="opacity:1" fill="#3092c9" d="M 305.5,103.5 C 305.177,109.69 305.51,115.69 306.5,121.5C 311.64,122.488 316.974,122.821 322.5,122.5C 322.5,125.167 322.5,127.833 322.5,130.5C 318.833,130.5 315.167,130.5 311.5,130.5C 313.086,133.271 313.586,136.271 313,139.5C 309.094,142.533 306.261,141.699 304.5,137C 305.609,134.953 306.276,132.787 306.5,130.5C 302.833,130.5 299.167,130.5 295.5,130.5C 295.823,126.774 295.489,123.107 294.5,119.5C 293.378,120.63 292.044,121.297 290.5,121.5C 288.486,121.608 286.82,120.942 285.5,119.5C 285.317,117.064 285.984,114.897 287.5,113C 290.332,112.674 292.999,113.174 295.5,114.5C 295.5,110.833 295.5,107.167 295.5,103.5C 298.833,103.5 302.167,103.5 305.5,103.5 Z"/></g>
<g><path style="opacity:1" fill="#64bde9" d="M 437.5,92.5 C 437.5,117.5 437.5,142.5 437.5,167.5C 417.167,167.5 396.833,167.5 376.5,167.5C 377.058,166.21 378.058,165.377 379.5,165C 378.376,164.751 377.376,164.251 376.5,163.5C 376.833,163.167 377.167,162.833 377.5,162.5C 384.436,161.548 390.102,158.548 394.5,153.5C 407.428,143.657 415.261,130.657 418,114.5C 418.811,115.96 419.645,116.293 420.5,115.5C 419.009,111.855 417.009,111.188 414.5,113.5C 414.5,112.167 414.5,110.833 414.5,109.5C 416.199,109.66 417.866,109.494 419.5,109C 419.996,107.004 420.996,105.337 422.5,104C 425.308,103.762 427.974,104.096 430.5,105C 431.5,104 432.5,103 433.5,102C 432.101,100.938 431.101,99.605 430.5,98C 431.372,94.3556 433.706,92.5223 437.5,92.5 Z"/></g>
<g><path style="opacity:1" fill="#52abdc" d="M 253.5,120.5 C 253.833,120.5 254.167,120.5 254.5,120.5C 254.5,127.5 254.5,134.5 254.5,141.5C 253.596,142.209 253.263,143.209 253.5,144.5C 251.396,144.201 249.396,144.534 247.5,145.5C 248.628,146.262 249.795,146.929 251,147.5C 251.148,150.589 251.981,153.422 253.5,156C 253.389,157.722 252.889,157.888 252,156.5C 251.517,157.448 251.351,158.448 251.5,159.5C 250.167,159.5 248.833,159.5 247.5,159.5C 247.674,157.139 248.007,154.806 248.5,152.5C 246.876,152.64 245.71,151.973 245,150.5C 244.667,150.833 244.333,151.167 244,151.5C 243.501,145.843 243.334,140.176 243.5,134.5C 243.896,130.901 245.896,128.568 249.5,127.5C 251.703,129.295 252.869,131.629 253,134.5C 253.499,129.845 253.666,125.179 253.5,120.5 Z"/></g>
<g><path style="opacity:1" fill="#77c4eb" d="M 360.5,72.5 C 378.023,81.8888 383.023,95.8888 375.5,114.5C 374.5,114.5 373.5,114.5 372.5,114.5C 372.167,119.833 371.833,119.833 371.5,114.5C 369.5,114.5 367.5,114.5 365.5,114.5C 365.5,116.833 365.5,119.167 365.5,121.5C 363.605,124.247 361.439,126.914 359,129.5C 353.333,128.167 347.667,128.167 342,129.5C 341.365,130.966 340.531,132.3 339.5,133.5C 345.898,133.333 349.231,136.333 349.5,142.5C 351.167,142.5 352.833,142.5 354.5,142.5C 351.823,144.53 349.823,146.697 348.5,149C 351.817,149.498 355.15,149.665 358.5,149.5C 358.263,148.209 358.596,147.209 359.5,146.5C 359.5,147.833 359.5,149.167 359.5,150.5C 355.833,150.5 352.167,150.5 348.5,150.5C 347.512,155.64 347.179,160.974 347.5,166.5C 354.022,166.177 360.355,166.51 366.5,167.5C 332.5,167.5 298.5,167.5 264.5,167.5C 264.5,165.833 264.5,164.167 264.5,162.5C 265.833,162.5 267.167,162.5 268.5,162.5C 267.232,156.983 267.565,151.65 269.5,146.5C 276.289,142.89 283.289,140.89 290.5,140.5C 290.998,137.99 291.664,135.49 292.5,133C 291.134,129.306 290.468,125.472 290.5,121.5C 292.044,121.297 293.378,120.63 294.5,119.5C 295.489,123.107 295.823,126.774 295.5,130.5C 299.167,130.5 302.833,130.5 306.5,130.5C 306.276,132.787 305.609,134.953 304.5,137C 306.261,141.699 309.094,142.533 313,139.5C 313.586,136.271 313.086,133.271 311.5,130.5C 315.167,130.5 318.833,130.5 322.5,130.5C 322.5,127.833 322.5,125.167 322.5,122.5C 316.974,122.821 311.64,122.488 306.5,121.5C 315.5,121.5 324.5,121.5 333.5,121.5C 334.167,121.167 334.833,120.833 335.5,120.5C 343.984,121.493 352.651,121.826 361.5,121.5C 362.148,107.791 361.481,94.4581 359.5,81.5C 359.737,80.209 359.404,79.209 358.5,78.5C 350.99,77.8334 343.323,77.1667 335.5,76.5C 335.709,75.914 336.043,75.414 336.5,75C 340.984,73.7733 345.484,72.6066 350,71.5C 353.458,72.2865 356.958,72.6198 360.5,72.5 Z"/></g>
<g><path style="opacity:1" fill="#021e4d" d="M 366.5,85.5 C 367.497,84.2875 368.497,84.4542 369.5,86C 368.423,86.4696 367.423,86.3029 366.5,85.5 Z"/></g>
<g><path style="opacity:1" fill="#79bee5" d="M 386.5,122.5 C 390.167,122.5 393.833,122.5 397.5,122.5C 397.5,128.833 397.5,135.167 397.5,141.5C 387.5,141.5 377.5,141.5 367.5,141.5C 367.5,141.167 367.5,140.833 367.5,140.5C 368.473,138.052 368.806,135.385 368.5,132.5C 370.288,132.215 371.955,132.548 373.5,133.5C 372.975,134.192 372.308,134.692 371.5,135C 372.691,135.698 373.691,136.531 374.5,137.5C 376.604,137.799 378.604,137.466 380.5,136.5C 379.975,135.808 379.308,135.308 378.5,135C 380.256,134.798 381.922,134.298 383.5,133.5C 382.388,132.735 381.721,131.735 381.5,130.5C 384.167,129.833 384.167,129.167 381.5,128.5C 382.469,127.691 383.302,126.691 384,125.5C 384.698,126.691 385.531,127.691 386.5,128.5C 383.833,129.167 383.833,129.833 386.5,130.5C 385.859,131.482 385.193,132.482 384.5,133.5C 386.423,134.308 388.423,134.808 390.5,135C 388.939,135.318 387.772,136.151 387,137.5C 386,134.833 385,134.833 384,137.5C 382.729,134.827 382.063,134.827 382,137.5C 384.937,138.632 387.937,138.632 391,137.5C 394.063,137.065 394.23,136.232 391.5,135C 394.994,133.016 395.994,130.183 394.5,126.5C 391.121,125.548 390.788,126.215 393.5,128.5C 392.167,128.5 391.5,129.167 391.5,130.5C 391.103,131.525 390.437,131.692 389.5,131C 390.458,129.853 390.125,128.853 388.5,128C 391.001,126.582 390.668,125.582 387.5,125C 387.833,124.667 388.167,124.333 388.5,124C 387.584,123.722 386.918,123.222 386.5,122.5 Z"/></g>
<g><path style="opacity:1" fill="#0f395e" d="M 393.5,128.5 C 393.5,129.833 392.833,130.5 391.5,130.5C 391.5,129.167 392.167,128.5 393.5,128.5 Z"/></g>
<g><path style="opacity:1" fill="#103a62" d="M 386.5,128.5 C 386.5,129.167 386.5,129.833 386.5,130.5C 383.833,129.833 383.833,129.167 386.5,128.5 Z"/></g>
<g><path style="opacity:1" fill="#001535" d="M 397.5,121.5 C 397.833,121.5 398.167,121.5 398.5,121.5C 398.5,128.5 398.5,135.5 398.5,142.5C 387.833,142.5 377.167,142.5 366.5,142.5C 366.5,141.833 366.833,141.5 367.5,141.5C 377.5,141.5 387.5,141.5 397.5,141.5C 397.5,135.167 397.5,128.833 397.5,122.5C 397.5,122.167 397.5,121.833 397.5,121.5 Z"/></g>
<g><path style="opacity:1" fill="#87ccef" d="M 285.5,119.5 C 286.82,120.942 288.486,121.608 290.5,121.5C 290.468,125.472 291.134,129.306 292.5,133C 291.664,135.49 290.998,137.99 290.5,140.5C 283.289,140.89 276.289,142.89 269.5,146.5C 267.565,151.65 267.232,156.983 268.5,162.5C 267.167,162.5 265.833,162.5 264.5,162.5C 264.5,164.167 264.5,165.833 264.5,167.5C 261.167,167.5 257.833,167.5 254.5,167.5C 254.5,158.833 254.5,150.167 254.5,141.5C 254.5,134.5 254.5,127.5 254.5,120.5C 258.182,120.335 261.848,120.501 265.5,121C 264.5,122 263.5,123 262.5,124C 262.833,124.167 263.167,124.333 263.5,124.5C 265.186,123.143 266.852,121.81 268.5,120.5C 271.39,120.473 272.39,119.307 271.5,117C 276.333,117.5 278.5,115.333 278,110.5C 278.977,112.74 279.477,115.073 279.5,117.5C 277.801,117.34 276.134,117.506 274.5,118C 277.168,118.567 279.834,119.067 282.5,119.5C 282.5,121.833 282.5,124.167 282.5,126.5C 286.708,126.206 287.375,124.54 284.5,121.5C 284.863,120.817 285.196,120.15 285.5,119.5 Z"/></g>
<g><path style="opacity:1" fill="#001c43" d="M 111.5,147.5 C 111.833,147.5 112.167,147.5 112.5,147.5C 112.5,149.5 111.5,150.5 109.5,150.5C 110.167,149.5 110.833,148.5 111.5,147.5 Z"/></g>
<g><path style="opacity:1" fill="#f2f7f8" d="M 359.5,146.5 C 361.127,148.464 363.127,149.797 365.5,150.5C 365.5,155.167 365.5,159.833 365.5,164.5C 359.833,164.5 354.167,164.5 348.5,164.5C 348.5,159.833 348.5,155.167 348.5,150.5C 352.167,150.5 355.833,150.5 359.5,150.5C 359.5,149.167 359.5,147.833 359.5,146.5 Z"/></g>
<g><path style="opacity:1" fill="#385e8d" d="M 111.5,153.5 C 112.978,153.238 114.311,153.571 115.5,154.5C 114.833,154.833 114.167,155.167 113.5,155.5C 112.287,155.253 111.62,154.586 111.5,153.5 Z"/></g>
<g><path style="opacity:1" fill="#093455" d="M 109.5,158.5 C 111.496,157.312 112.329,157.979 112,160.5C 111.292,159.619 110.458,158.953 109.5,158.5 Z"/></g>
<g><path style="opacity:1" fill="#001b3f" d="M 101.5,157.5 C 102.713,158.497 102.546,159.497 101,160.5C 100.53,159.423 100.697,158.423 101.5,157.5 Z"/></g>
<g><path style="opacity:1" fill="#272728" d="M 356.5,153.5 C 359.068,154.574 360.735,156.574 361.5,159.5C 358.407,159.998 355.574,160.998 353,162.5C 353.559,159.363 354.726,156.363 356.5,153.5 Z"/></g>
<g><path style="opacity:1" fill="#f1f0f2" d="M 356.5,155.5 C 360.774,157.957 360.441,158.791 355.5,158C 356.252,157.329 356.586,156.496 356.5,155.5 Z"/></g>
<g><path style="opacity:1" fill="#a4d9f3" d="M 36.5,144.5 C 38.7354,144.205 40.7354,144.539 42.5,145.5C 40.439,146.751 40.1057,148.418 41.5,150.5C 57.3138,157.462 72.9805,157.129 88.5,149.5C 91.7852,149.736 94.7852,150.736 97.5,152.5C 98.2978,150.922 98.7978,149.256 99,147.5C 99.2784,148.416 99.7784,149.082 100.5,149.5C 104.236,150.477 104.236,149.81 100.5,147.5C 101.313,146.347 102.313,146.347 103.5,147.5C 104.182,146.757 104.849,146.091 105.5,145.5C 106.167,150.833 106.833,150.833 107.5,145.5C 108.268,146.263 108.768,147.263 109,148.5C 109.671,147.748 110.504,147.414 111.5,147.5C 110.833,148.5 110.167,149.5 109.5,150.5C 105.062,149.773 102.395,151.607 101.5,156C 93.1543,161.51 84.1543,165.343 74.5,167.5C 66.5,167.5 58.5,167.5 50.5,167.5C 45.2597,165.559 39.9264,163.559 34.5,161.5C 32.3717,162.054 30.8717,163.387 30,165.5C 27.9233,159.766 25.7566,154.099 23.5,148.5C 23.7911,147.351 24.6244,146.684 26,146.5C 29.6766,146.028 33.1766,145.362 36.5,144.5 Z"/></g>
<g><path style="opacity:1" fill="#0b2942" d="M 100.5,147.5 C 104.236,149.81 104.236,150.477 100.5,149.5C 100.5,148.833 100.5,148.167 100.5,147.5 Z"/></g>
<g><path style="opacity:1" fill="#1d4a62" d="M 105.5,145.5 C 106.167,145.5 106.833,145.5 107.5,145.5C 106.833,150.833 106.167,150.833 105.5,145.5 Z"/></g>
<g><path style="opacity:1" fill="#155470" d="M 105.5,159.5 C 106.586,159.62 107.253,160.287 107.5,161.5C 107.167,162.167 106.833,162.833 106.5,163.5C 105.571,162.311 105.238,160.978 105.5,159.5 Z"/></g>
<g><path style="opacity:1" fill="#6abce6" d="M 242.5,92.5 C 243.496,106.323 243.829,120.323 243.5,134.5C 243.334,140.176 243.501,145.843 244,151.5C 244.333,151.167 244.667,150.833 245,150.5C 245.71,151.973 246.876,152.64 248.5,152.5C 248.007,154.806 247.674,157.139 247.5,159.5C 248.833,159.5 250.167,159.5 251.5,159.5C 251.351,158.448 251.517,157.448 252,156.5C 252.889,157.888 253.389,157.722 253.5,156C 251.981,153.422 251.148,150.589 251,147.5C 249.795,146.929 248.628,146.262 247.5,145.5C 249.396,144.534 251.396,144.201 253.5,144.5C 253.263,143.209 253.596,142.209 254.5,141.5C 254.5,150.167 254.5,158.833 254.5,167.5C 250.5,167.5 246.5,167.5 242.5,167.5C 242.5,156.5 242.5,145.5 242.5,134.5C 242.5,130.5 242.5,126.5 242.5,122.5C 242.5,112.5 242.5,102.5 242.5,92.5 Z"/></g>
<g><path style="opacity:1" fill="#b3ddf1" d="M 365.5,150.5 C 366.487,155.305 366.821,160.305 366.5,165.5C 360.31,165.823 354.31,165.49 348.5,164.5C 354.167,164.5 359.833,164.5 365.5,164.5C 365.5,159.833 365.5,155.167 365.5,150.5 Z"/></g>
</svg>
